<svg width="124" height="124" viewBox="0 0 124 124" fill="none" xmlns="http://www.w3.org/2000/svg">
<path d="M61.853 123.706C96.0135 123.706 123.706 96.0135 123.706 61.853C123.706 27.6925 96.0135 0 61.853 0C27.6925 0 0 27.6925 0 61.853C0 96.0135 27.6925 123.706 61.853 123.706Z" fill="#F2E0D8"/>
<mask id="mask0_178_2259" style="mask-type:luminance" maskUnits="userSpaceOnUse" x="0" y="0" width="124" height="124">
<path d="M61.853 123.706C96.0135 123.706 123.706 96.0135 123.706 61.853C123.706 27.6925 96.0135 0 61.853 0C27.6925 0 0 27.6925 0 61.853C0 96.0135 27.6925 123.706 61.853 123.706Z" fill="white"/>
</mask>
<g mask="url(#mask0_178_2259)">
<path d="M120.981 209.756H13.9319C13.4829 205.666 29.8799 118.677 49.1399 90.7109C51.3249 87.5379 70.0449 85.228 76.9179 93.121C113.32 134.925 121.86 208.753 120.981 209.756Z" fill="#3C3575"/>
<path d="M79.2129 95.8457H45.9829C46.0729 95.6857 46.1629 95.5257 46.2629 95.3657H78.8229C78.9529 95.5257 79.0829 95.6857 79.2129 95.8457Z" fill="#BB4D9B"/>
<path d="M86.3027 105.436H41.3027C41.3727 105.276 41.4427 105.116 41.5227 104.956H85.9827C86.0927 105.116 86.2028 105.276 86.3027 105.436Z" fill="#BB4D9B"/>
<path d="M92.2226 115.036H37.4326C37.4926 114.876 37.5526 114.716 37.6126 114.556H91.9526C92.0426 114.716 92.1326 114.876 92.2226 115.036Z" fill="#BB4D9B"/>
<path d="M46.6029 97.9309C43.5649 105.801 32.102 133.399 25.871 153.206C21.69 166.497 20.0979 177.652 19.1829 180.584C19.1829 180.584 50.7919 170.432 57.9089 170.414C68.8699 170.387 86.451 193.278 82.139 196.146C75.359 200.655 43.0409 215.995 17.2319 220.811C3.20195 223.429 -23.23 205.597 -21.142 191.421C-18.211 171.525 17.7419 119.081 31.4219 104.209C38.5249 96.4879 50.3049 88.3379 46.6029 97.9309Z" fill="#C95F50"/>
<path d="M-23.0672 195.625C-22.4052 209.957 -4.47719 222.021 5.91881 222.659C23.8508 223.747 77.6448 208.081 77.6448 208.081L56.7348 167.796C56.7348 167.796 20.1298 180.221 19.2008 180.571L19.2018 180.555C19.5258 179.487 28.5458 145.591 32.5758 134.359C32.7908 133.739 33.0398 133.105 33.2748 132.437C34.4348 129.326 36.0268 125.218 37.7848 120.779L37.8028 120.748C38.7768 118.291 39.8068 115.724 40.8188 113.188L40.8198 113.172C45.2408 102.19 49.5498 91.7378 49.5498 91.7378C43.3878 92.7488 37.3038 95.9878 27.3138 106.474C17.3408 116.943 -24.1602 171.982 -23.0672 195.625Z" fill="#3C3575"/>
<path d="M48.0626 95.3657C47.9926 95.5257 47.9326 95.6857 47.8626 95.8457H39.4126C39.6626 95.6857 39.9126 95.5257 40.1626 95.3657H48.0626Z" fill="#BB4D9B"/>
<path d="M44.1427 104.956C44.0827 105.116 44.0128 105.276 43.9528 105.436H28.3228C28.4728 105.266 28.6328 105.116 28.7928 104.956H44.1427Z" fill="#BB4D9B"/>
<path d="M40.2728 114.556C40.2128 114.716 40.1527 114.876 40.0827 115.036H20.0728C20.2028 114.876 20.3328 114.716 20.4528 114.556H40.2728Z" fill="#BB4D9B"/>
<path d="M8.00586 186.512L19.1839 180.585L19.2009 180.57L19.2019 180.554C19.5259 179.486 28.5459 145.59 32.5759 134.358C32.7909 133.738 33.0399 133.104 33.2749 132.436C34.4349 129.325 36.0269 125.217 37.7849 120.778L8.00586 186.512Z" fill="#BB4D9B"/>
<path d="M6.89062 182.751C9.69563 182.789 26.6326 178.265 29.0996 180.59C44.1336 194.762 48.8856 191.907 52.0856 193.753C76.8566 208.005 109.937 224.747 121.745 224.853C139.652 224.999 146.784 209.971 143.804 195.772C137.92 167.703 100.065 112.975 82.9376 98.4339C73.8556 90.7349 74.5736 102.348 78.3306 114.97C80.5336 122.372 84.3866 133.377 88.3176 144.176C91.7996 153.796 101.025 178.381 101.185 178.958L101.184 178.974C101.198 179.007 101.214 179.024 101.213 179.041C101.225 179.107 101.16 179.119 101.016 179.078C100.229 178.933 79.0456 168.95 57.7426 163.466C50.2356 161.533 34.6026 158.78 28.9976 161.282C25.6646 162.77 25.6076 164.759 25.6076 164.759C25.6076 164.759 22.9356 164.516 20.1176 166.836C18.2486 168.375 17.6686 170.553 17.6686 170.553C17.6686 170.553 14.7446 170.962 13.2236 172.657C11.4096 174.678 11.2496 176.817 11.2496 176.817C7.30563 177.87 6.89062 182.751 6.89062 182.751Z" fill="#C95F50"/>
<path d="M73.5947 167.73C69.6747 166.403 67.9017 166.395 67.9017 166.395L45.6157 204.031C45.6157 204.031 107.002 226.13 119.607 227.423C132.211 228.716 146.55 218.79 146.792 202.965C147.132 180.725 110.865 127.316 92.6217 106.663C84.2607 97.197 74.5117 90.324 72.0267 91.874C69.0897 93.707 74.4227 105.608 77.2327 114.486C82.4217 130.876 101.014 179.078 101.014 179.078C101.014 179.078 78.2647 169.311 73.5947 167.73Z" fill="#3C3575"/>
<path d="M81.0924 95.8462H71.3224C71.2924 95.6762 71.2724 95.5162 71.2524 95.3662H80.4324C80.6524 95.5162 80.8724 95.6862 81.0924 95.8462Z" fill="#BB4D9B"/>
<path d="M91.5124 105.436H74.1024C74.0524 105.276 73.9924 105.116 73.9424 104.956H91.0724C91.2224 105.116 91.3724 105.276 91.5124 105.436Z" fill="#BB4D9B"/>
<path d="M99.5825 115.036H77.4024C77.3524 114.866 77.3024 114.706 77.2524 114.556H99.2025C99.3225 114.716 99.4525 114.876 99.5825 115.036Z" fill="#BB4D9B"/>
<path d="M51.1746 106.487C56.9426 108.561 68.1436 100.658 72.9946 93.7739C73.3246 93.2999 73.1546 87.9079 73.2586 81.3469C73.3376 77.3649 73.5186 72.9339 73.9756 68.9019L47.9916 72.1758C47.9916 72.1758 49.5186 80.9099 48.6776 87.9339C48.6006 88.5199 48.4806 89.0599 48.3156 89.5689C48.2986 89.6439 48.2666 89.7339 48.2476 89.8389C47.3796 92.9229 45.6006 104.479 51.1746 106.487Z" fill="#C95F50"/>
<path d="M48.2417 89.8358C48.1917 90.0028 48.1417 90.1858 48.1087 90.4028C63.6647 89.7438 69.5807 82.9038 73.4107 76.3418C73.5277 73.8398 73.6947 71.3048 73.9777 68.9028L47.9917 72.1718C47.9917 72.1718 49.5267 80.9118 48.6757 87.9338C48.6087 88.5178 48.4757 89.0518 48.3087 89.5688C48.2917 89.6358 48.2747 89.7358 48.2417 89.8358Z" fill="#3C3575"/>
<path d="M55.5878 50.2892C54.6678 56.9002 49.2197 61.6052 43.4207 60.7972C37.6207 59.9902 33.6648 53.9762 34.5858 47.3652C35.5058 40.7542 40.9538 36.0502 46.7538 36.8572C52.5528 37.6652 56.5078 43.6782 55.5878 50.2892Z" fill="#BB4D9B"/>
<path d="M58.9338 51.18C57.9098 58.534 51.8498 63.768 45.3978 62.87C38.9458 61.972 34.5448 55.282 35.5688 47.928C36.5928 40.574 42.6528 35.34 49.1048 36.238C55.5568 37.136 59.9568 43.826 58.9338 51.18Z" fill="#6F84F0"/>
<path d="M80.997 36.5946C83.722 45.6276 78.8749 71.6796 72.4379 77.4716C63.1069 85.8676 47.8709 86.6256 40.7469 75.4186C33.8419 64.5556 40.7599 30.7146 47.9459 25.4556C58.5309 17.7086 76.972 23.2526 80.997 36.5946Z" fill="#C95F50"/>
<path d="M58.8267 51.1942C58.8527 51.1302 58.9486 51.3022 58.9336 51.3742C58.5606 53.1202 58.4267 55.1832 59.9097 56.0542C59.9557 56.0812 59.9347 56.1682 59.8767 56.1502C57.9877 55.5252 58.1927 52.7882 58.8267 51.1942Z" fill="#3C3575"/>
<path d="M60.7276 49.6441C63.5916 49.9411 62.7866 55.6471 60.1336 55.3711C57.5226 55.1011 58.3266 49.3951 60.7276 49.6441Z" fill="#3C3575"/>
<path d="M48.0584 49.5734C48.0544 49.5034 47.9084 49.6374 47.9004 49.7104C47.7074 51.4854 47.1874 53.4864 45.5064 53.8474C45.4544 53.8584 45.4464 53.9484 45.5064 53.9484C47.4964 53.9494 48.1604 51.2864 48.0584 49.5734Z" fill="#3C3575"/>
<path d="M46.7406 47.5052C43.9286 46.8892 42.9026 52.5582 45.5076 53.1292C48.0716 53.6922 49.0976 48.0212 46.7406 47.5052Z" fill="#3C3575"/>
<path d="M63.3467 47.3528C62.5967 47.0478 61.9567 46.6408 61.2467 46.2628C60.4457 45.8358 59.7637 45.5778 59.3167 44.7428C59.0777 44.2948 59.3037 43.5828 59.7167 43.3098C60.6797 42.6728 61.7907 42.9518 62.7757 43.4258C63.8447 43.9408 64.5367 44.6118 65.0397 45.6848C65.5277 46.7238 64.3357 47.7548 63.3467 47.3528Z" fill="#3C3575"/>
<path d="M44.9397 44.321C45.7487 44.304 46.4917 44.153 47.2897 44.052C48.1907 43.939 48.9197 43.942 49.6347 43.321C50.0187 42.988 50.0607 42.243 49.7727 41.84C49.1007 40.901 47.9637 40.766 46.8737 40.857C45.6907 40.957 44.8047 41.336 43.9517 42.159C43.1257 42.956 43.8727 44.344 44.9397 44.321Z" fill="#3C3575"/>
<path d="M57.1667 67.485C56.6847 67.839 56.1817 68.349 55.5337 68.312C54.9117 68.277 54.2297 67.898 53.6967 67.6C53.6437 67.571 53.5787 67.622 53.6077 67.68C53.9707 68.423 54.8767 68.984 55.7157 68.956C56.5357 68.929 57.0287 68.293 57.3267 67.589C57.3677 67.49 57.2377 67.434 57.1667 67.485Z" fill="#3C3575"/>
<path d="M56.0545 61.9322C54.8485 63.3272 53.2765 63.9602 51.6605 64.0432C50.9385 64.0852 50.1965 64.0052 49.4815 63.8372C49.3395 63.8142 49.1995 63.7782 49.0745 63.7312C48.9475 63.6972 48.8335 63.6662 48.6955 63.6172C48.4935 63.5582 48.4035 63.3712 48.3965 63.1712L48.3985 63.1582C48.4085 63.0942 48.4175 63.0422 48.4405 62.9802C48.4405 62.9802 48.4405 62.9802 48.4425 62.9672L48.4675 62.8122C48.6225 61.4462 49.0465 59.3952 49.0465 59.3952C48.5135 59.5742 45.8175 60.3572 45.9585 59.6512C47.1395 53.8162 48.4535 47.3252 50.8615 41.7672C50.9315 41.5802 51.2215 41.6662 51.1775 41.8582C50.2645 47.5122 48.3635 52.9672 47.3555 58.6312C48.2075 58.4382 49.6075 58.0552 50.3175 58.1692C50.5035 58.2522 49.4274 62.1182 49.4074 62.7372C49.4074 62.7372 49.4035 62.7632 49.4095 62.8042C51.6545 63.4182 53.4755 62.9712 55.9115 61.7482C56.0575 61.6672 56.1805 61.8062 56.0545 61.9322Z" fill="#3C3575"/>
<path d="M80.8068 54.4837C79.1778 53.5027 76.4588 47.6577 75.2388 45.2567C73.9728 42.7627 75.0758 31.7557 75.4808 28.4707C78.0088 30.6107 79.9708 33.3897 80.9978 36.6907C82.1708 40.4507 81.9558 47.4387 80.8068 54.4837Z" fill="#3C3575"/>
<path d="M50.1188 32.0008C51.7018 34.9368 54.6718 36.9238 58.0248 37.1198C61.2908 37.3108 64.9048 35.8298 66.7158 33.0268C66.7698 32.9438 66.8998 33.0268 66.8458 33.1108C64.9078 36.1088 61.6618 38.2088 57.9888 37.9048C54.5418 37.6198 51.2898 35.2798 49.9078 32.1118C49.8458 31.9718 50.0448 31.8648 50.1188 32.0008Z" fill="#3C3575"/>
<path d="M65.0749 10.8837C70.5159 12.2217 74.8619 16.3657 76.0319 20.5367C76.7429 23.0707 76.413 25.4087 75.526 27.6647C75.49 27.7557 75.299 27.6927 75.328 27.5987C76.467 23.9657 75.577 19.3407 72.186 15.8727C68.928 12.5407 64.0409 10.6447 59.2909 11.3297C56.8109 11.6867 54.6349 12.7257 53.291 14.2817C53.1409 14.4557 52.7599 14.2357 52.8929 14.0537C55.1349 10.9707 60.1499 9.6727 65.0749 10.8837Z" fill="#3C3575"/>
<path d="M30.6738 15.663C32.1368 13.163 34.5318 11.273 37.2568 10.324C41.0738 8.99396 44.8008 10.146 48.4788 11.366C48.5788 11.399 48.5278 11.554 48.4288 11.521C45.2938 10.493 42.0548 9.63196 38.7718 10.483C36.0958 11.177 33.6278 12.779 32.0038 15.031C28.6328 19.703 29.3018 26.578 33.5938 30.447C36.0238 32.637 39.3858 33.756 42.6408 33.451C42.7688 33.439 42.8178 33.634 42.6858 33.65C36.6998 34.369 30.7298 30.384 29.4078 24.435C28.7548 21.502 29.1468 18.274 30.6738 15.663Z" fill="#3C3575"/>
<path d="M81.6039 42.5768C81.6039 42.5768 88.9379 33.9218 85.8299 27.3048C84.0689 23.5558 75.8069 22.1968 75.8069 22.1968C75.8069 22.1968 74.1979 16.9248 67.7679 13.9008C61.2689 10.8458 52.2689 13.0668 52.2689 13.0668C52.2689 13.0668 46.5849 7.93376 39.7439 10.0848C30.2059 13.0838 28.4509 26.2358 36.0839 32.2488C41.4439 36.4718 50.7399 32.9388 50.7399 32.9388C51.4999 33.2158 58.4629 39.7948 66.0799 33.9618C66.0799 33.9618 70.0519 39.4128 75.1419 37.3078C75.1419 37.3078 76.4129 42.2378 81.6039 42.5768Z" fill="#3C3575"/>
<path d="M75.3589 57.8217C75.3589 57.8217 81.4468 49.5307 85.2218 51.7217C88.9978 53.9117 84.2818 66.0257 79.7538 67.5917C75.2258 69.1587 73.6938 64.9957 73.6938 64.9957L75.3589 57.8217Z" fill="#C95F50"/>
<path d="M83.7841 55.1598C83.8561 55.1548 83.8681 55.2559 83.8051 55.2799C80.6281 56.4819 78.9031 59.3629 77.6721 62.3619C78.6361 61.2189 79.9251 60.6098 81.4601 61.7608C81.5401 61.8218 81.4591 61.9478 81.3711 61.9268C80.0881 61.6208 79.1521 61.8229 78.2571 62.8349C77.6231 63.5519 77.1801 64.4668 76.7191 65.2998C76.5651 65.5778 76.0601 65.4158 76.1751 65.0938C76.1831 65.0708 76.1931 65.0458 76.2021 65.0218C76.2151 61.0078 79.4661 55.4638 83.7841 55.1598Z" fill="#3C3575"/>
<path d="M83.7991 48.194C83.7991 48.194 87.4141 35.867 84.6831 27.185C81.6431 17.521 67.2611 6.06397 52.2681 13.067C52.2681 13.067 71.1241 12.703 78.9011 26.766C82.1771 32.69 78.9441 47.688 78.9441 47.688L83.7991 48.194Z" fill="#6F84F0"/>
<path d="M69.037 52.946C67.61 60.233 71.635 67.155 78.028 68.408C84.421 69.661 90.761 64.769 92.188 57.482C93.616 50.195 89.59 43.273 83.198 42.02C76.804 40.767 70.464 45.659 69.037 52.946Z" fill="#6F84F0"/>
<path d="M72.4899 53.1932C71.2069 59.7432 74.8249 65.9652 80.5709 67.0912C86.3169 68.2172 92.016 63.8202 93.299 57.2702C94.582 50.7202 90.9639 44.4982 85.2179 43.3722C79.4719 42.2462 73.7729 46.6432 72.4899 53.1932Z" fill="#BB4D9B"/>
</g>
</svg>
