<svg width="64" height="62" viewBox="0 0 64 62" fill="none" xmlns="http://www.w3.org/2000/svg">
<path d="M54.3898 9.19678C48.4321 3.29714 40.384 -0.00857854 31.9994 1.67196e-05H31.6702C23.2406 0.0867489 15.1858 3.49636 9.25572 9.48804C3.32568 15.4797 -0.000446137 23.5694 4.48839e-08 31.9995C4.48839e-08 45.23 8.17832 56.3252 21.3412 60.9743C22.8258 61.4978 24.4143 61.6576 25.9734 61.4404C27.5325 61.2232 29.0169 60.6353 30.3019 59.7261C31.587 58.8168 32.6353 57.6127 33.3589 56.2147C34.0826 54.8167 34.4605 53.2656 34.4609 51.6914C34.4609 50.3858 34.9796 49.1336 35.9028 48.2103C36.8261 47.2871 38.0783 46.7684 39.3839 46.7684H53.6021C55.8356 46.7792 58.0055 46.0259 59.7518 44.6334C61.498 43.2409 62.7154 41.293 63.202 39.1132C63.7522 36.6908 64.0196 34.2127 63.9989 31.7287C63.9675 27.524 63.1021 23.3674 61.4526 19.4997C59.8032 15.6319 57.4025 12.13 54.3898 9.19678ZM58.3897 38.0301C58.1453 39.1161 57.5375 40.0861 56.667 40.7799C55.7965 41.4736 54.7153 41.8495 53.6021 41.8454H39.3839C36.7726 41.8454 34.2682 42.8828 32.4218 44.7293C30.5753 46.5757 29.5379 49.0801 29.5379 51.6914C29.5368 52.4778 29.3473 53.2524 28.9854 53.9505C28.6234 54.6485 28.0995 55.2497 27.4574 55.7038C26.8154 56.1578 26.074 56.4514 25.2952 56.5601C24.5164 56.6687 23.7229 56.5892 22.9811 56.3283C11.8429 52.3991 4.92299 43.0762 4.92299 31.9995C4.92261 24.8666 7.73683 18.0217 12.7543 12.9518C17.7717 7.88199 24.587 4.99677 31.7194 4.92301H31.9964C39.1291 4.95071 45.9652 7.78074 51.0304 12.8028C56.0956 17.8248 58.9841 24.6364 59.0728 31.7687C59.0911 33.8747 58.8661 35.9758 58.4021 38.0301H58.3897ZM35.6917 15.9997C35.6917 16.73 35.4751 17.4438 35.0694 18.051C34.6637 18.6582 34.0871 19.1315 33.4124 19.4109C32.7377 19.6904 31.9953 19.7635 31.2791 19.621C30.5629 19.4786 29.905 19.1269 29.3886 18.6105C28.8723 18.0942 28.5206 17.4363 28.3781 16.7201C28.2357 16.0038 28.3088 15.2614 28.5883 14.5868C28.8677 13.9121 29.341 13.3355 29.9481 12.9297C30.5553 12.524 31.2692 12.3075 31.9994 12.3075C32.9787 12.3075 33.9178 12.6965 34.6102 13.3889C35.3027 14.0814 35.6917 15.0205 35.6917 15.9997ZM22.1535 23.3842C22.1535 24.1145 21.9369 24.8283 21.5312 25.4355C21.1255 26.0427 20.5488 26.516 19.8742 26.7954C19.1995 27.0749 18.4571 27.148 17.7409 27.0055C17.0247 26.8631 16.3668 26.5114 15.8504 25.995C15.334 25.4787 14.9824 24.8208 14.8399 24.1045C14.6975 23.3883 14.7706 22.6459 15.05 21.9713C15.3295 21.2966 15.8027 20.7199 16.4099 20.3142C17.0171 19.9085 17.731 19.692 18.4612 19.692C19.4405 19.692 20.3796 20.081 21.072 20.7734C21.7645 21.4658 22.1535 22.405 22.1535 23.3842ZM22.1535 40.6147C22.1535 41.3449 21.9369 42.0588 21.5312 42.666C21.1255 43.2732 20.5488 43.7464 19.8742 44.0259C19.1995 44.3053 18.4571 44.3785 17.7409 44.236C17.0247 44.0935 16.3668 43.7419 15.8504 43.2255C15.334 42.7091 14.9824 42.0512 14.8399 41.335C14.6975 40.6188 14.7706 39.8764 15.05 39.2017C15.3295 38.5271 15.8027 37.9504 16.4099 37.5447C17.0171 37.139 17.731 36.9224 18.4612 36.9224C19.4405 36.9224 20.3796 37.3115 21.072 38.0039C21.7645 38.6963 22.1535 39.6354 22.1535 40.6147ZM49.2299 23.3842C49.2299 24.1145 49.0134 24.8283 48.6077 25.4355C48.2019 26.0427 47.6253 26.516 46.9506 26.7954C46.276 27.0749 45.5336 27.148 44.8173 27.0055C44.1011 26.8631 43.4432 26.5114 42.9269 25.995C42.4105 25.4787 42.0588 24.8208 41.9164 24.1045C41.7739 23.3883 41.847 22.6459 42.1265 21.9713C42.4059 21.2966 42.8792 20.7199 43.4864 20.3142C44.0936 19.9085 44.8074 19.692 45.5377 19.692C46.5169 19.692 47.456 20.081 48.1485 20.7734C48.8409 21.4658 49.2299 22.405 49.2299 23.3842Z" fill="#9779FB"/>
</svg>
