<svg width="32" height="25" viewBox="0 0 32 25" fill="none" xmlns="http://www.w3.org/2000/svg">
<path d="M27.107 2.07458C25.0356 1.10541 22.8208 0.401062 20.5052 0C20.2208 0.514148 19.8886 1.20569 19.6595 1.7558C17.198 1.38562 14.7591 1.38562 12.3429 1.7558C12.1139 1.20569 11.7741 0.514148 11.4871 0C9.16908 0.401062 6.95167 1.108 4.88026 2.07971C0.70219 8.39331 -0.430415 14.5501 0.135889 20.6195C2.907 22.6889 5.59255 23.946 8.23277 24.7686C8.88465 23.8714 9.46605 22.9177 9.9669 21.9125C9.013 21.5501 8.09937 21.1028 7.2361 20.5835C7.46512 20.4138 7.68914 20.2364 7.90557 20.0539C13.1709 22.5166 18.8919 22.5166 24.0943 20.0539C24.3133 20.2364 24.5373 20.4138 24.7638 20.5835C23.898 21.1053 22.9818 21.5526 22.0279 21.9151C22.5288 22.9177 23.1077 23.874 23.7621 24.7711C26.4048 23.9485 29.0929 22.6915 31.864 20.6195C32.5285 13.5835 30.7289 7.48328 27.107 2.07458ZM10.6842 16.8869C9.10363 16.8869 7.8074 15.4113 7.8074 13.6144C7.8074 11.8175 9.07595 10.3393 10.6842 10.3393C12.2926 10.3393 13.5887 11.8149 13.5611 13.6144C13.5636 15.4113 12.2926 16.8869 10.6842 16.8869ZM21.3157 16.8869C19.735 16.8869 18.4388 15.4113 18.4388 13.6144C18.4388 11.8175 19.7073 10.3393 21.3157 10.3393C22.9239 10.3393 24.2202 11.8149 24.1925 13.6144C24.1925 15.4113 22.9239 16.8869 21.3157 16.8869Z" fill="#9779FB"/>
</svg>
