<svg width="667" height="395" viewBox="0 0 667 395" fill="none" xmlns="http://www.w3.org/2000/svg">
<g filter="url(#filter0_d_80_233)">
<path d="M50.3494 329.406C19.5199 305.253 -0.480671 290.044 0.605963 267.145C1.69097 244.245 22.6062 280.609 22.6062 280.609C22.6062 280.609 -4.77206 237.882 0.730844 217.266C6.23375 196.649 20.1702 248.872 20.1702 248.872C20.1702 248.872 7.33012 171.801 22.9614 174.905C38.5927 178.012 33.3299 242.914 33.3299 242.914C33.3299 242.914 35.967 210.461 46.23 216.863C56.4914 223.263 38.4776 273.959 38.4776 273.959C38.4776 273.959 45.2406 246.747 53.2704 251.717C61.3001 256.689 46.1116 306.688 50.3494 329.406Z" fill="#7FD4CA"/>
<path d="M38.7017 326.037C60.6452 314.085 74.833 306.62 76.5652 292.099C78.2973 277.577 61.3036 298.257 61.3036 298.257C61.3036 298.257 83.0363 274.256 81.7486 260.706C80.4624 247.155 66.1838 278.546 66.1838 278.546C66.1838 278.546 82.3924 231.408 72.2316 231.717C62.0708 232.026 58.5335 273.414 58.5335 273.414C58.5335 273.414 60.2981 252.718 53.1669 255.666C46.0356 258.613 52.0202 292.402 52.0202 292.402C52.0202 292.402 50.6368 274.57 45.0593 276.853C39.4818 279.137 43.765 312.189 38.7017 326.037Z" fill="#629DCF"/>
<path d="M80.1803 315.018H14.28L17.235 365.013C17.8659 375.674 26.7082 383.998 37.4026 383.998H57.0577C67.7537 383.998 76.596 375.674 77.2253 365.013L80.1803 315.018Z" fill="#C1C1F1"/>
<path d="M565.749 376.975C559.163 281.393 667.489 161.122 647.545 75.866C636.75 29.7189 606.452 17.8659 579.055 23.8612" stroke="#C1C1F1" stroke-width="5.68118" stroke-miterlimit="10" stroke-linecap="round" stroke-linejoin="round"/>
<path d="M526.454 23.8207L572.738 20.0068C577.926 19.5793 582.477 23.432 582.905 28.6127L586.725 74.8296C587.415 83.1861 577.644 88.2032 571.238 82.7828L521.136 40.3799C514.729 34.9579 518.085 24.5106 526.454 23.8207Z" fill="#7171CE"/>
<path d="M588.484 23.7041C588.484 28.3796 584.689 32.1708 580.005 32.1708C575.321 32.1708 571.526 28.3796 571.526 23.7041C571.526 19.0287 575.321 15.2374 580.005 15.2374C584.689 15.2374 588.484 19.0287 588.484 23.7041Z" fill="#ACACEE"/>
<path d="M151.847 163.768C151.847 163.768 107.498 163.768 91.304 163.768C75.1181 163.768 44.8707 157.42 47.3765 142.221C48.9253 132.812 56.0128 130.253 62.4272 133.597C66.3682 135.662 70.0579 139.954 72.0366 146.262C74.518 154.14 81.9298 157.566 88.8307 157.331C96.421 157.08 103.395 152.4 102.487 144.334C100.751 128.941 104.027 117.2 117.513 109.912L143.146 111.046C152.966 121.241 151.847 163.768 151.847 163.768Z" fill="#A2A2EE"/>
<path d="M88.8309 157.331C76.3022 160.894 70.3338 149.93 64.552 143.962C60.3676 139.646 58.4619 133.168 62.4273 133.597C66.3684 135.662 70.0581 139.954 72.0368 146.262C74.5182 154.14 81.93 157.566 88.8309 157.331Z" fill="#7171CE"/>
<path d="M129.623 119.654C106.492 119.654 108.007 106.665 109.104 96.5678C110.208 86.4623 115.03 79.9681 129.623 79.9681C144.216 79.9681 149.038 86.4623 150.135 96.5678C151.239 106.665 152.754 119.654 129.623 119.654Z" fill="#A2A2EE"/>
<path d="M120.147 83.4355C119.57 80.02 111.475 73.8627 108.682 76.5089C105.888 79.1552 107.959 89.7854 111.765 91.6608" fill="#A2A2EE"/>
<path d="M110.465 79.4434C114.462 83.9165 114.367 87.4761 114.367 87.4761" stroke="#7171CE" stroke-width="0.811598" stroke-miterlimit="10" stroke-linecap="round" stroke-linejoin="round"/>
<path d="M139.095 83.4355C139.672 80.02 147.765 73.8627 150.56 76.5089C153.354 79.1552 151.283 89.7854 147.476 91.6608" fill="#A2A2EE"/>
<path d="M148.779 79.4434C144.781 83.9165 144.877 87.4761 144.877 87.4761" stroke="#7171CE" stroke-width="0.811598" stroke-miterlimit="10" stroke-linecap="round" stroke-linejoin="round"/>
<path d="M122.829 97.1444C122.829 98.7655 121.881 100.079 120.71 100.079C119.539 100.079 118.59 98.7655 118.59 97.1444C118.59 95.5233 119.539 94.2099 120.71 94.2099C121.881 94.2115 122.829 95.5249 122.829 97.1444Z" fill="black"/>
<path d="M140.653 97.1444C140.653 98.7655 139.704 100.079 138.533 100.079C137.362 100.079 136.414 98.7655 136.414 97.1444C136.414 95.5233 137.362 94.2099 138.533 94.2099C139.704 94.2099 140.653 95.5249 140.653 97.1444Z" fill="black"/>
<path d="M133.397 103.211L131.461 106.064C131.08 106.626 130.253 106.626 129.872 106.064L127.935 103.211C127.504 102.575 127.959 101.715 128.73 101.715H132.603C133.371 101.715 133.829 102.575 133.397 103.211Z" fill="#7171CE"/>
<path d="M130.666 105.154C130.666 105.154 131.028 112.01 123.585 109.268" stroke="#7171CE" stroke-width="0.811598" stroke-miterlimit="10" stroke-linecap="round" stroke-linejoin="round"/>
<path d="M130.671 105.154C130.671 105.154 130.309 112.01 137.752 109.268" stroke="#7171CE" stroke-width="0.811598" stroke-miterlimit="10" stroke-linecap="round" stroke-linejoin="round"/>
<path d="M111.259 114.223C111.259 114.223 128.12 129.798 145.474 115.908" stroke="#7171CE" stroke-width="0.811598" stroke-miterlimit="10" stroke-linecap="round" stroke-linejoin="round"/>
<path d="M112.428 162.053C112.352 162.053 114.574 159.906 114.749 156.277C115.139 148.182 113.775 134.631 113.775 134.631" stroke="#7171CE" stroke-width="0.811598" stroke-miterlimit="10" stroke-linecap="round" stroke-linejoin="round"/>
<path d="M125.188 162.053L125.829 133.476" stroke="#7171CE" stroke-width="0.811598" stroke-miterlimit="10" stroke-linecap="round" stroke-linejoin="round"/>
<path d="M146.815 162.053C146.886 162.053 144.778 159.852 144.617 156.469C144.236 148.424 145.469 134.631 145.469 134.631" stroke="#7171CE" stroke-width="0.811598" stroke-miterlimit="10" stroke-linecap="round" stroke-linejoin="round"/>
<path d="M134.057 162.053L133.414 133.476" stroke="#7171CE" stroke-width="0.811598" stroke-miterlimit="10" stroke-linecap="round" stroke-linejoin="round"/>
<path d="M229.741 162.053C227.427 162.482 264.697 354.27 264.697 354.27H302.518L274.59 146.462" fill="#292749"/>
<path d="M308.999 163.673L314.901 183.013C317.426 191.285 317.863 200.051 316.174 208.532L302.191 278.735L344.182 331.072L315.663 350.313L265.508 294.266C258.453 286.383 255.307 275.759 256.932 265.311L267.078 167.244" fill="#4A4272"/>
<path d="M264.697 354.271L219.045 380.149C217.203 381.193 217.946 383.998 220.064 383.998H305.986C307.288 383.998 308.264 382.808 308.008 381.534L302.518 354.271H264.697Z" fill="#DADAFD"/>
<path d="M315.664 350.315L309.66 365.961L290.253 378.643C287.826 380.23 288.95 384 291.853 384H316.741L358.186 357.045C359.555 356.156 359.926 354.318 359.011 352.968L344.183 331.074L315.664 350.315Z" fill="white"/>
<path d="M225.07 74.0036L213.863 81.1649C209.943 83.6703 206.897 87.3255 205.144 91.63L183.311 142.355L212.493 143.513L228.384 101.017L234.425 84.3278" fill="#7E58FA"/>
<path d="M314.239 168.975H240.502C240.502 168.975 239.002 163.525 237.259 157.865C236.318 154.813 235.312 151.711 234.428 149.363C234.209 148.796 233.958 148.278 233.682 147.784C231.785 144.44 228.509 142.456 225.63 137.954C224.065 135.525 222.621 132.367 221.567 127.872C221.437 127.314 221.308 126.739 221.194 126.14C220.651 123.386 220.408 120.658 220.4 118.042C220.375 114.415 220.764 110.997 221.332 107.969C222.703 100.681 225.07 95.6852 225.07 95.6852V74.0004L237.615 66.0406L241.273 63.7167L260.151 60.672L266.168 62.2348L286.587 67.5548L302.294 107.969L305.968 117.402L306.065 118.042L307.646 127.872L309.268 137.954L310.841 147.784L312.455 157.865L314.239 168.975Z" fill="#7E58FA"/>
<path d="M250.983 78.0572C239.014 78.7859 237.424 70.2756 237.375 66.0406L241.033 63.7167L259.911 60.672L265.928 62.2348C266.358 68.7532 262.465 77.3689 250.983 78.0572Z" fill="white"/>
<path d="M305.827 118.041H220.894C221.832 118.126 220.894 112.758 222.806 107.969H302.058L305.726 117.404L305.827 118.041Z" fill="#A581FA"/>
<path d="M309.025 137.954H225.39C223.823 135.528 222.381 132.371 221.329 127.876H307.406L309.025 137.954Z" fill="#A581FA"/>
<path d="M312.215 157.865H237.022C236.079 154.817 235.071 151.711 234.187 149.365C233.969 148.799 233.723 148.278 233.441 147.786H310.6L312.215 157.865Z" fill="#A581FA"/>
<path d="M309.197 151.77L311.896 89.3045C312.269 80.6823 306.591 72.959 298.241 70.729L286.342 67.5516L283.499 145.361" fill="#7E58FA"/>
<path d="M271.954 142.394C271.869 141.878 270.318 131.426 270.318 131.426L193.271 136.169C186.508 136.585 181.237 142.184 181.237 148.948C181.237 156.473 187.701 162.374 195.206 161.702L273.807 154.654L271.954 142.394Z" fill="#7E58FA"/>
<path d="M230.705 143.748C230.705 143.748 223.668 131.683 220.695 130.779C217.722 129.876 205.899 126.135 203.959 128.844C202.021 131.554 208.87 133.748 208.87 133.748C208.87 133.748 198.92 131.296 198.015 134.135C197.11 136.974 205.962 138.867 205.962 138.867C205.962 138.867 196.787 136.781 196.14 140.137C195.495 143.492 205.25 144.524 205.25 144.524C205.25 144.524 193.362 144.718 193.75 148.267C194.137 151.815 207.255 152.589 207.255 152.589C207.255 152.589 217.852 160.202 220.823 162.01C223.796 163.817 236.071 162.139 236.071 162.139" fill="#EAAA96"/>
<path d="M222.547 13.4398C214.491 19.1177 216.905 30.8169 218.282 40.1078C219.66 49.3988 212.767 55.0767 219.832 61.6146C226.897 68.1524 243.436 57.4897 249.64 58.1764C255.843 58.8631 275.142 63.5434 277.036 49.5041C278.932 35.4632 269.627 27.2054 268.765 19.8076C267.902 12.4098 255.152 -1.52743 240.679 1.39736C226.209 4.32214 222.547 13.4398 222.547 13.4398Z" fill="#4A4272"/>
<path d="M260.754 62.9037C260.58 67.3783 257.048 72.6271 249.855 72.6271C242.662 72.6271 242.234 67.2908 242.234 67.2908L241.031 63.7134L238.528 56.2767L253.516 43.7209L255.074 47.8554L260.754 62.9037Z" fill="#EAAA96"/>
<path d="M255.076 47.8587C253.618 57.8136 247.434 62.5717 241.031 63.715L238.528 56.2784L253.516 43.7225L255.076 47.8587Z" fill="#D1634B"/>
<path d="M239.304 58.6039C230.692 58.6039 223.71 51.6321 223.71 43.0326V18.7728H254.896V43.0326C254.898 51.6337 247.916 58.6039 239.304 58.6039Z" fill="#EAAA96"/>
<path d="M264.989 32.9594C266.966 35.3271 266.145 39.2625 263.158 41.75C260.17 44.2375 256.146 44.333 254.169 41.9654C252.192 39.5977 253.013 35.6623 256 33.1748C258.988 30.6889 263.013 30.5918 264.989 32.9594Z" fill="#EAAA96"/>
<path d="M257.343 39.3337C260.358 35.6348 262.952 35.7644 262.952 35.7644" stroke="#D1634B" stroke-width="0.725731" stroke-miterlimit="10" stroke-linecap="round" stroke-linejoin="round"/>
<path d="M235.556 32.3667L234.209 41.5119C234.012 42.8577 235.056 44.0675 236.42 44.0675H238.53" stroke="#D1634B" stroke-width="0.725731" stroke-miterlimit="10" stroke-linecap="round" stroke-linejoin="round"/>
<path d="M247.818 37.4632C247.818 38.4965 247.181 39.3337 246.393 39.3337C245.604 39.3337 244.967 38.4965 244.967 37.4632C244.967 36.43 245.604 35.5927 246.393 35.5927C247.181 35.5927 247.818 36.43 247.818 37.4632Z" fill="black"/>
<path d="M230.993 37.4632C230.993 38.4965 230.356 39.3337 229.568 39.3337C228.781 39.3337 228.142 38.4965 228.142 37.4632C228.142 36.43 228.779 35.5927 229.568 35.5927C230.356 35.5927 230.993 36.43 230.993 37.4632Z" fill="black"/>
<path d="M242.878 30.9043C242.878 30.9043 246.367 27.4629 249.857 30.9043" stroke="#4A4272" stroke-width="1.45146" stroke-miterlimit="10" stroke-linecap="round" stroke-linejoin="round"/>
<path d="M233.058 30.9043C233.058 30.9043 229.569 27.4629 226.079 30.9043" stroke="#4A4272" stroke-width="1.45146" stroke-miterlimit="10" stroke-linecap="round" stroke-linejoin="round"/>
<path d="M244.545 47.5073C244.79 49.4523 243.412 51.2272 241.464 51.4718C239.516 51.7163 237.739 50.3397 237.494 48.3947" fill="white"/>
<path d="M222.547 18.172C223.666 23.9357 228.879 27.8063 230.429 26.603C231.98 25.3981 230.429 22.3016 230.429 22.3016C230.429 22.3016 242.437 28.6468 247.509 30.0007C252.58 31.3562 252.807 31.2266 252.807 31.2266L254.413 37.3936C254.541 37.8859 255.242 37.8843 255.366 37.3903L257.308 29.7415L258.816 22.7729L257.18 15.5889L225.648 16.8359L222.547 18.172Z" fill="#4A4272"/>
<path d="M286.17 138.867L230.994 140.587L229.568 162.954H297.166C303.495 162.954 308.746 158.071 309.197 151.768C309.695 144.796 304.166 138.866 297.166 138.866L286.17 138.867Z" fill="#7E58FA"/>
<path d="M283.726 139.173L285.215 98.3979" stroke="#553899" stroke-width="0.725731" stroke-miterlimit="10" stroke-linecap="round" stroke-linejoin="round"/>
<path d="M271.095 139.512L270.318 131.426C270.318 131.426 276.694 117.877 278.761 116.327C280.829 114.779 299.093 110.306 300.042 113.746C300.989 117.187 290.737 119.681 290.737 119.681C290.737 119.681 299.696 117.788 300.473 121.058C301.248 124.327 292.109 125.531 292.109 125.531C292.109 125.531 300.559 124.412 301.248 128.37C301.938 132.328 290.823 132.069 290.823 132.069C290.823 132.069 298.541 130.867 299.094 134.993C299.647 139.12 287.55 138.864 287.55 138.864L271.095 139.512Z" fill="#EAAA96"/>
<path d="M230.993 140.587L295.131 138.867" stroke="#553899" stroke-width="0.725731" stroke-miterlimit="10" stroke-linecap="round" stroke-linejoin="round"/>
<path d="M220.594 123.987C221.04 104.285 226.037 103.768 224.83 94.1338" stroke="#553899" stroke-width="0.725731" stroke-miterlimit="10" stroke-linecap="round" stroke-linejoin="round"/>
<path d="M333.804 178.789H163.554C161.879 178.789 160.521 177.433 160.521 175.76V165.082C160.521 163.409 161.879 162.053 163.554 162.053H333.804C335.479 162.053 336.836 163.409 336.836 165.082V175.76C336.836 177.433 335.479 178.789 333.804 178.789Z" fill="#C1C1F1"/>
<path d="M229.741 178.789H59.4918C57.8165 178.789 56.459 177.433 56.459 175.76V165.082C56.459 163.409 57.8165 162.053 59.4918 162.053H229.741C231.417 162.053 232.774 163.409 232.774 165.082V175.76C232.774 177.433 231.417 178.789 229.741 178.789Z" fill="#DADAFD"/>
<path d="M54.4673 383.998H44.5125L89.6029 178.789H99.5577L54.4673 383.998Z" fill="white"/>
<path d="M108.262 383.998H98.3057L143.396 178.789H153.353L108.262 383.998Z" fill="white"/>
<path d="M339.595 383.998H349.55L304.46 178.789H294.503L339.595 383.998Z" fill="#ACACEE"/>
<path d="M285.8 383.998H295.757L250.666 178.789H240.71L285.8 383.998Z" fill="#ACACEE"/>
<path d="M550.147 383.998H560.01L553.073 357.536H543.211L550.147 383.998Z" fill="#A2A2EE"/>
<path d="M486.609 383.998H496.47L489.533 357.536H479.672L486.609 383.998Z" fill="#A2A2EE"/>
<path d="M357.667 163.805H480.676V281.393H559.163C566.635 281.393 572.911 287.001 573.739 294.417L578.964 341.268C579.932 349.945 573.13 357.534 564.389 357.534H458.515L394.181 314.44L380.474 281.393" fill="#ACACEE"/>
<path d="M368.998 172.973L391.548 281.393H491.229L498.133 341.213C499.137 349.908 492.329 357.534 483.563 357.534H375.561L346.337 177.15C345.207 170.17 350.588 163.833 357.667 163.804C363.146 163.784 367.883 167.618 368.998 172.973Z" fill="#C1C1F1"/>
<path d="M557.624 202.603V202.612L556.521 209.462L551.875 238.248L521.319 256.994L507.12 255.731L446.666 250.37L430.131 239.398L431.112 225.835L449.772 216.021L485.014 216.596L538.389 206.312L557.624 202.603Z" fill="#383264"/>
<path d="M400.824 235.932V251.436C400.824 268.698 414.839 282.693 432.128 282.693H508.81L528.176 354.271H565.751L554.761 264.238C552.906 249.042 540.75 237.162 525.497 235.634L427.59 225.835" fill="#4A4272"/>
<path d="M565.749 354.271L598.976 377.84C601.675 379.754 600.319 384 597.007 384H528.019C525.959 384 524.375 382.186 524.652 380.149L528.175 354.271H565.749Z" fill="white"/>
<path d="M510.555 310.523L520.709 349.936C521.535 353.138 517.755 355.507 515.224 353.374L462.519 308.924C460.946 307.598 460.907 305.19 462.435 303.813L481.849 286.313L510.555 310.523Z" fill="white"/>
<path d="M570.201 204.061C569.382 203.697 568.547 203.389 567.696 203.146C564.411 202.166 560.949 201.996 557.624 202.612V202.603L538.389 206.312L540.603 199.138C541.041 198.992 558.524 190.911 561.127 192.498C563.73 194.085 571.766 201.939 572.253 203.664C572.496 204.514 571.385 204.401 570.201 204.061Z" fill="#EAAA96"/>
<path d="M570.201 204.061C568.985 203.721 567.696 203.146 567.696 203.146C568.547 203.389 569.382 203.697 570.201 204.061Z" fill="#EAAA96"/>
<path d="M583.054 223.738C583.054 228.855 581.238 233.989 577.532 238.102L510.996 311.967L481.551 286.606L507.12 255.731L543.433 211.883L544.957 210.045C548.314 205.996 552.831 203.494 557.624 202.612C560.948 201.996 564.411 202.166 567.695 203.146C568.547 203.389 569.382 203.697 570.201 204.061C572.107 204.895 573.931 206.029 575.594 207.462C580.532 211.713 583.054 217.713 583.054 223.738Z" fill="#383264"/>
<path d="M519.196 241.15L539.37 216.79" stroke="#292749" stroke-width="0.811598" stroke-miterlimit="10" stroke-linecap="round" stroke-linejoin="round"/>
<path d="M463.63 125.994L470.225 130.334C476.978 134.779 481.858 141.552 483.931 149.36L496.187 195.529H543.59L544.698 205.054L474.453 219.054L455.336 147.248" fill="#7EA2FB"/>
<path d="M485.014 216.596L400.825 235.932L398.14 225.973L396.819 221.082L395.505 216.199L394.183 211.308L392.869 206.417L391.548 201.535L390.234 196.644L388.912 191.761L387.598 186.878L386.739 183.696L386.52 181.931L381.825 143.509L387.996 120.488L411.058 112.439L415.121 111.022H434.162L437.632 112.787L463.63 125.994L472.55 163.768L473.71 168.683L476.029 178.53L477.189 183.453L478.349 188.368L479.516 193.291L480.676 198.215L481.836 203.13L482.995 208.053L485.014 216.596Z" fill="#7EA2FB"/>
<path d="M482.995 208.053L398.14 225.973L396.818 221.082L481.835 203.13L482.995 208.053Z" fill="#A2BFFC"/>
<path d="M480.676 198.215L395.505 216.199L394.183 211.308L479.516 193.291L480.676 198.215Z" fill="#A2BFFC"/>
<path d="M478.348 188.368L392.869 206.417L391.547 201.535L477.189 183.453L478.348 188.368Z" fill="#A2BFFC"/>
<path d="M476.029 178.53L390.234 196.644L388.912 191.761L474.869 173.607L476.029 178.53Z" fill="#A2BFFC"/>
<path d="M473.71 168.683L387.599 186.878L386.739 183.696L386.52 181.931L472.551 163.768L473.71 168.683Z" fill="#A2BFFC"/>
<path d="M485.014 216.596L468.462 146.464" stroke="#4A71D1" stroke-width="0.811598" stroke-miterlimit="10" stroke-linecap="round" stroke-linejoin="round"/>
<path d="M427.723 124.14C416.621 126.083 412.396 116.73 411.058 112.439L415.121 111.022H434.161L437.632 112.787C437.819 117.022 436.343 122.642 427.723 124.14Z" fill="white"/>
<path d="M471.161 158.298C472.148 157.111 479.109 153.536 479.036 150.866C478.965 148.197 477.055 146.636 475.099 147.475C473.143 148.314 465.351 154.113 465.351 154.113" fill="#D1634B"/>
<path d="M417.834 97.9007C409.785 95.0147 401.018 80.1981 400.92 74.2335C400.825 68.269 408.339 67.0187 408.339 67.0187C408.339 67.0187 404.464 61.7279 414.06 55.1852C423.659 48.6425 442.157 51.8183 447.84 51.8183C453.525 51.8183 454.681 56.6282 452.466 59.8995C450.25 63.1709 447.36 63.3636 447.36 63.3636C447.36 63.3636 451.695 63.5563 450.925 67.1159C450.155 70.6756 445.24 69.8091 445.24 69.8091C445.24 69.8091 448.854 70.9978 447.167 72.8683C444.639 75.6716 437.327 72.023 437.327 72.023" fill="#4A4272"/>
<path d="M414.974 112.322C415.955 116.692 420.378 121.218 427.452 119.919C434.527 118.62 433.982 113.295 433.982 113.295L434.518 109.559L435.633 101.794L418.618 92.1515L417.833 96.4998L414.974 112.322Z" fill="#EAAA96"/>
<path d="M417.834 96.4998C421.07 106.029 428.015 109.592 434.518 109.561L435.633 101.795L418.618 92.1531L417.834 96.4998Z" fill="#D1634B"/>
<path d="M434.713 104.625C443.184 103.07 448.788 94.9548 447.232 86.4963L442.842 62.6364L412.168 68.2657L416.56 92.1256C418.115 100.584 426.244 106.179 434.713 104.625Z" fill="#EAAA96"/>
<path d="M405.387 83.6362C403.872 86.3213 405.39 90.0445 408.778 91.9507C412.168 93.8568 416.143 93.2268 417.658 90.5417C419.173 87.8566 417.655 84.1334 414.267 82.2273C410.879 80.3195 406.902 80.9495 405.387 83.6362Z" fill="#EAAA96"/>
<path d="M414.06 88.5255C410.426 85.4306 407.897 86.0266 407.897 86.0266" stroke="#D1634B" stroke-width="0.725731" stroke-miterlimit="10" stroke-linecap="round" stroke-linejoin="round"/>
<path d="M434.228 77.7397L437.207 86.4914C437.645 87.7805 436.838 89.1571 435.496 89.4032L433.422 89.7838" stroke="#D1634B" stroke-width="0.725731" stroke-miterlimit="10" stroke-linecap="round" stroke-linejoin="round"/>
<path d="M428.555 77.9697C428.555 77.9697 424.5 75.215 421.691 79.2296" stroke="#4A4272" stroke-width="1.45146" stroke-miterlimit="10" stroke-linecap="round" stroke-linejoin="round"/>
<path d="M436.654 75.8498C436.654 75.8498 439.463 71.8351 443.518 74.5898" stroke="#4A4272" stroke-width="1.45146" stroke-miterlimit="10" stroke-linecap="round" stroke-linejoin="round"/>
<path d="M413.349 81.6718L416.557 86.8493C416.946 87.4777 417.916 87.1279 417.813 86.3959L416.527 77.1923C416.527 77.1923 431.341 71.7088 434.737 68.6058C438.134 65.5029 439.001 63.8429 439.001 63.8429C439.001 63.8429 436.688 69.8318 438.424 70.6982C440.158 71.5646 443.121 67.1629 444.421 62.4C445.722 57.6371 440.231 58.6476 440.231 58.6476L411.522 66.7288L409.735 72.823L413.349 81.6718Z" fill="#4A4272"/>
<path d="M424.74 83.6605C424.74 83.6605 428.545 85.4193 430.707 82.7115" stroke="black" stroke-width="0.811598" stroke-miterlimit="10" stroke-linecap="round" stroke-linejoin="round"/>
<path d="M438.881 81.1131C438.881 81.1131 442.532 82.48 444.084 80.1512" stroke="black" stroke-width="0.811598" stroke-miterlimit="10" stroke-linecap="round" stroke-linejoin="round"/>
<path d="M430.131 94.5856C430.131 94.5856 432.737 97.8326 436.713 95.018" stroke="#D1634B" stroke-width="0.725731" stroke-miterlimit="10" stroke-linecap="round" stroke-linejoin="round"/>
<path d="M433.722 85.0387C433.722 88.3457 431.036 91.0276 427.725 91.0276C424.413 91.0276 421.727 88.3457 421.727 85.0387C421.727 81.7317 424.413 79.0499 427.725 79.0499C431.036 79.0499 433.722 81.7301 433.722 85.0387Z" stroke="white" stroke-width="0.811598" stroke-miterlimit="10"/>
<path d="M449.323 81.5115C449.323 84.8185 446.637 87.5003 443.325 87.5003C440.013 87.5003 437.328 84.8185 437.328 81.5115C437.328 78.2045 440.013 75.5226 443.325 75.5226C446.639 75.5226 449.323 78.2029 449.323 81.5115Z" stroke="white" stroke-width="0.811598" stroke-miterlimit="10"/>
<path d="M433.422 83.1715C433.422 83.1715 435.196 80.3908 437.327 82.4119" stroke="white" stroke-width="0.811598" stroke-miterlimit="10"/>
<path d="M421.753 84.4784L414.974 83.4662" stroke="white" stroke-width="0.811598" stroke-miterlimit="10" stroke-linecap="round"/>
<path d="M480.648 134.342L480.712 137.238C475.35 137.354 471.021 141.738 471.021 147.122C471.021 152.578 475.465 157.015 480.929 157.015C481.725 157.015 482.494 156.911 483.237 156.733C485.905 161.02 490.652 163.861 496.045 163.861C504.07 163.861 510.688 157.585 511.103 149.582L511.439 134.342H480.648ZM480.929 152.965C477.702 152.965 475.076 150.343 475.076 147.12C475.076 143.939 477.633 141.35 480.801 141.282L480.983 149.582C481.043 150.741 481.247 151.859 481.554 152.931C481.349 152.953 481.14 152.965 480.929 152.965Z" fill="#383264"/>
<path d="M449.772 164.069C449.772 164.069 456.926 151.298 458.371 149.711C459.816 148.124 479.182 140.548 480.772 143.578C482.361 146.608 471.522 152.453 471.522 152.453C471.522 152.453 473.906 168.039 472.75 173.449C471.594 178.862 457.359 184.851 457.359 184.851" fill="#EAAA96"/>
<path d="M388.087 120.488L408.705 185.139L449.773 160.709L461.311 185.139L407.735 221.414C400.588 226.253 390.789 223.108 387.804 215.017L367.304 159.413C362.243 145.687 368.326 130.353 381.429 123.812L388.087 120.488Z" fill="#7EA2FB"/>
<path d="M449.772 160.709L400.919 190.141" stroke="#4A71D1" stroke-width="0.811598" stroke-miterlimit="10" stroke-linecap="round" stroke-linejoin="round"/>
<path d="M408.705 185.139L399.384 155.915" stroke="#4A71D1" stroke-width="0.811598" stroke-miterlimit="10" stroke-linecap="round" stroke-linejoin="round"/>
<path d="M461.309 185.139L406.431 222.191" stroke="#4A71D1" stroke-width="0.811598" stroke-miterlimit="10" stroke-linecap="round" stroke-linejoin="round"/>
<path d="M451.715 243.826H370.245C364.682 243.826 360.171 239.322 360.171 233.767C360.171 228.212 364.682 223.709 370.245 223.709H451.715C457.277 223.709 461.788 228.212 461.788 233.767C461.788 239.322 457.277 243.826 451.715 243.826Z" fill="#C1C1F1"/>
<path d="M397.107 383.998H387.246L394.183 357.536H404.044L397.107 383.998Z" fill="#A2A2EE"/>
<path d="M460.646 383.998H450.785L457.722 357.536H467.584L460.646 383.998Z" fill="#A2A2EE"/>
</g>
<defs>
<filter id="filter0_d_80_233" x="0" y="3.43323e-05" width="666.84" height="395" filterUnits="userSpaceOnUse" color-interpolation-filters="sRGB">
<feFlood flood-opacity="0" result="BackgroundImageFix"/>
<feColorMatrix in="SourceAlpha" type="matrix" values="0 0 0 0 0 0 0 0 0 0 0 0 0 0 0 0 0 0 127 0" result="hardAlpha"/>
<feOffset dx="8" dy="5"/>
<feGaussianBlur stdDeviation="3"/>
<feComposite in2="hardAlpha" operator="out"/>
<feColorMatrix type="matrix" values="0 0 0 0 0 0 0 0 0 0 0 0 0 0 0 0 0 0 0.25 0"/>
<feBlend mode="normal" in2="BackgroundImageFix" result="effect1_dropShadow_80_233"/>
<feBlend mode="normal" in="SourceGraphic" in2="effect1_dropShadow_80_233" result="shape"/>
</filter>
</defs>
</svg>
