<svg width="33" height="32" viewBox="0 0 33 32" fill="none" xmlns="http://www.w3.org/2000/svg">
<path d="M16.25 8.61539C14.7895 8.61539 13.3617 9.04849 12.1473 9.85992C10.9329 10.6713 9.98643 11.8247 9.42751 13.174C8.86858 14.5234 8.72234 16.0082 9.00728 17.4407C9.29222 18.8731 9.99553 20.189 11.0283 21.2217C12.061 22.2545 13.3769 22.9578 14.8093 23.2427C16.2418 23.5277 17.7266 23.3814 19.076 22.8225C20.4253 22.2636 21.5787 21.3171 22.3901 20.1027C23.2015 18.8883 23.6346 17.4605 23.6346 16C23.6326 14.0421 22.8539 12.165 21.4695 10.7805C20.085 9.3961 18.2079 8.61742 16.25 8.61539ZM16.25 20.9231C15.2763 20.9231 14.3245 20.6343 13.5149 20.0934C12.7053 19.5524 12.0743 18.7836 11.7017 17.884C11.3291 16.9844 11.2316 15.9945 11.4215 15.0396C11.6115 14.0846 12.0804 13.2074 12.7689 12.5189C13.4574 11.8304 14.3346 11.3615 15.2896 11.1715C16.2445 10.9816 17.2344 11.0791 18.134 11.4517C19.0336 11.8243 19.8024 12.4553 20.3434 13.2649C20.8843 14.0745 21.1731 15.0263 21.1731 16C21.1731 17.3057 20.6544 18.5579 19.7311 19.4811C18.8079 20.4044 17.5557 20.9231 16.25 20.9231ZM23.6346 0H8.86539C6.58119 0.00244342 4.39126 0.910918 2.77609 2.52609C1.16092 4.14126 0.252443 6.33119 0.25 8.61539V23.3846C0.252443 25.6688 1.16092 27.8587 2.77609 29.4739C4.39126 31.0891 6.58119 31.9976 8.86539 32H23.6346C25.9188 31.9976 28.1087 31.0891 29.7239 29.4739C31.3391 27.8587 32.2476 25.6688 32.25 23.3846V8.61539C32.2476 6.33119 31.3391 4.14126 29.7239 2.52609C28.1087 0.910918 25.9188 0.00244342 23.6346 0ZM29.7885 23.3846C29.7885 25.0167 29.1401 26.582 27.986 27.736C26.832 28.8901 25.2667 29.5385 23.6346 29.5385H8.86539C7.23328 29.5385 5.66803 28.8901 4.51396 27.736C3.35989 26.582 2.71154 25.0167 2.71154 23.3846V8.61539C2.71154 6.98328 3.35989 5.41803 4.51396 4.26396C5.66803 3.10989 7.23328 2.46154 8.86539 2.46154H23.6346C25.2667 2.46154 26.832 3.10989 27.986 4.26396C29.1401 5.41803 29.7885 6.98328 29.7885 8.61539V23.3846ZM26.0962 8C26.0962 8.36514 25.9879 8.72207 25.785 9.02567C25.5822 9.32927 25.2938 9.56589 24.9565 9.70562C24.6192 9.84536 24.248 9.88192 23.8898 9.81068C23.5317 9.73945 23.2028 9.56362 22.9446 9.30543C22.6864 9.04724 22.5106 8.71829 22.4393 8.36017C22.3681 8.00205 22.4046 7.63085 22.5444 7.29351C22.6841 6.95617 22.9207 6.66784 23.2243 6.46498C23.5279 6.26212 23.8849 6.15385 24.25 6.15385C24.7396 6.15385 25.2092 6.34835 25.5554 6.69457C25.9016 7.04079 26.0962 7.51037 26.0962 8Z" fill="#9779FB"/>
</svg>
