<svg width="32" height="32" viewBox="0 0 32 32" fill="none" xmlns="http://www.w3.org/2000/svg">
<path fill-rule="evenodd" clip-rule="evenodd" d="M31.9785 19.3738C31.8568 18.6076 31.194 18.1058 30.423 18.072C30.144 18.0596 29.8606 18.088 29.5823 18.1224C29.2462 18.1639 28.9141 18.2374 28.5788 18.286C28.3471 18.3196 28.1121 18.3351 27.8806 18.3582L27.875 18.329C28.3071 17.5366 28.7573 16.7528 29.1662 15.949C29.4796 15.3325 29.7478 14.6937 30.025 14.0601C30.4836 13.0103 30.85 11.928 31.1534 10.8281C31.4441 9.77487 31.6929 8.71013 31.7711 7.61755C31.8024 7.18115 31.8241 6.74292 31.8216 6.30599C31.8195 5.95756 31.7808 5.60859 31.7448 5.26121C31.7043 4.86315 31.5804 4.48583 31.409 4.12268C31.1829 3.64427 30.8325 3.25172 30.4636 2.87887C30.1683 2.58032 29.8436 2.30829 29.5215 2.03653C29.0623 1.64871 28.5461 1.33913 28.0099 1.06422C27.4024 0.750787 26.7589 0.508401 26.0927 0.342135C25.6889 0.242094 25.276 0.167785 24.8671 0.0884876C24.72 0.0596044 24.5727 0 24.4256 0H21.6563C21.5562 0 21.457 0.0501518 21.3561 0.0611799C20.6931 0.132863 20.0379 0.254172 19.4016 0.445589C19.1636 0.517272 18.9462 0.472109 18.7201 0.451891C18.5468 0.436399 18.3764 0.391236 18.2031 0.382834C17.5428 0.3508 16.8816 0.303799 16.2215 0.310626C15.589 0.316928 14.963 0.418019 14.3508 0.586854C13.8384 0.728119 13.337 0.900631 12.8779 1.16216C12.6813 1.27401 12.5255 1.25301 12.3222 1.19603C11.6388 1.00461 10.9506 0.824747 10.2565 0.673767C9.82382 0.579765 9.37899 0.533027 8.93714 0.488126C8.51315 0.445339 8.08751 0.419584 7.66133 0.410929C7.24544 0.402264 6.82657 0.402527 6.41257 0.438237C5.75315 0.493902 5.10316 0.627309 4.47695 0.835513C3.78342 1.06546 3.1354 1.40867 2.56081 1.85036C1.97482 2.30068 1.50485 2.85051 1.12681 3.47833C0.728492 4.1408 0.455375 4.85002 0.285556 5.59494C0.193616 5.99852 0.135477 6.41339 0.0724706 6.82326C0.0527305 6.95088 0.270413 7.07849 0 7.20557V8.98951C0.270413 9.10819 0.0562458 9.22661 0.0719297 9.34556C0.109517 9.6315 0.142778 9.91981 0.192534 10.2037C0.271224 10.6529 0.364516 11.1009 0.459702 11.5472C0.59187 12.1711 0.731232 12.7936 0.87776 13.4144C0.984843 13.866 1.1068 14.315 1.23443 14.7617C1.4294 15.4439 1.62139 16.1273 1.84178 16.8019C2.04648 17.4287 2.28093 18.0465 2.51349 18.6643C2.83555 19.519 3.22116 20.3461 3.68356 21.1388C4.0835 21.8252 4.5405 22.468 5.15352 22.9968C5.55752 23.3452 6.00722 23.6131 6.53074 23.747C6.94203 23.852 7.36009 23.8646 7.78113 23.7809C8.26082 23.6861 8.70894 23.4777 9.0856 23.1741C9.12967 23.1389 9.17808 23.1121 9.23027 23.1767C9.42902 23.4211 9.69511 23.5842 9.97336 23.7252C10.7243 24.1054 11.5426 24.2194 12.3738 24.2658C12.575 24.2771 12.7784 24.249 12.9812 24.2435C13.3762 24.233 13.7602 24.1582 14.138 24.0521C14.3359 23.9964 14.5293 23.9258 14.7307 23.8599C14.7413 24.0681 14.7548 24.2687 14.761 24.4693L14.7891 25.5632C14.7943 25.7297 14.801 25.8967 14.817 26.0624C14.8578 26.4896 14.8978 26.9171 14.9503 27.3429C14.9868 27.6365 15.0247 27.9324 15.0958 28.2189C15.2384 28.7972 15.4337 29.362 15.6793 29.9067C15.9145 30.4354 16.2761 30.9021 16.7339 31.2682C17.3343 31.7503 18.0379 31.9559 18.7977 31.9939C19.112 32.0099 19.4351 31.995 19.7445 31.9404C20.2361 31.8555 20.7225 31.7437 21.2012 31.6056C22.1722 31.321 23.0116 30.8294 23.6387 30.0351C23.9956 29.5824 24.2887 29.0927 24.4769 28.5521C24.6322 28.1055 24.7785 27.6544 24.8947 27.1972C24.9867 26.837 25.0321 26.4654 25.0881 26.0976C25.1251 25.8541 25.1473 25.6084 25.1706 25.3631C25.2084 24.9648 25.2471 24.5667 25.2744 24.1676C25.2933 23.8898 25.2925 23.6107 25.3039 23.3324C25.3074 23.2476 25.3214 23.1633 25.3296 23.0787C25.3371 23.0005 25.3777 22.9734 25.4599 22.9748C25.7495 22.979 26.0397 22.9863 26.3285 22.9737C26.6521 22.9595 26.9788 22.9461 27.2973 22.8941C27.7512 22.8205 28.2015 22.727 28.6467 22.614C29.1721 22.4806 29.654 22.2416 30.1178 21.9694C30.658 21.6524 31.1505 21.2806 31.5501 20.8017C31.8976 20.3839 32.0623 19.9011 31.9785 19.3738ZM31.0558 19.6317C31.038 19.8719 30.9247 20.0778 30.7603 20.2537C29.9844 21.0842 29.0112 21.5881 27.8979 21.8362C27.475 21.9302 27.0386 21.9791 26.6056 22.0179C26.2358 22.0495 25.8642 22.058 25.4932 22.0434C25.2211 22.0334 24.9512 21.973 24.6733 21.9342C24.6454 22.181 24.6189 22.4381 24.5867 22.6946L24.4572 23.6779C24.418 23.9896 24.3874 24.3023 24.3471 24.6137C24.3077 24.916 24.2585 25.2171 24.2171 25.5194C24.1784 25.8008 24.15 26.0836 24.107 26.3646C24.0408 26.7952 23.9775 27.2269 23.891 27.6541C23.7871 28.1648 23.6278 28.6595 23.368 29.1201C23.0511 29.6822 22.6016 30.1105 22.0297 30.4277C21.4402 30.7548 20.7958 30.925 20.1425 31.0673C19.6801 31.1681 19.2036 31.1847 18.7353 31.1437C17.923 31.0723 17.2296 30.7349 16.7056 30.1234C16.2053 29.5396 15.8667 28.8706 15.7456 28.1133C15.689 27.7529 15.6448 27.3907 15.6128 27.0273C15.5769 26.6236 15.55 26.2191 15.532 25.8142C15.508 25.3006 15.4902 24.7867 15.4787 24.2727C15.4644 23.6409 15.4598 23.0092 15.4506 22.3774L15.4489 22.3532C15.118 22.546 14.7927 22.7571 14.4476 22.9309C14.0444 23.1334 13.603 23.2543 13.1502 23.2862C12.7938 23.3124 12.4328 23.3363 12.078 23.3088C11.4963 23.2633 10.9152 23.1748 10.3944 22.8968C10.1832 22.7839 9.96281 22.6465 9.81733 22.4661C9.4685 22.034 9.63562 21.4878 10.1616 21.225C10.525 21.043 10.9217 20.9671 11.3157 20.8786C11.6586 20.8031 11.9979 20.7129 12.3327 20.6084C12.6632 20.5034 12.8716 20.2432 13.0774 19.988L13.4035 19.5807C13.2675 19.5668 13.1394 19.5526 13.0112 19.5411C12.6221 19.5054 12.2508 19.4014 11.8957 19.2486C11.5918 19.1181 11.5872 19.1039 11.3644 19.3386C10.9923 19.7309 10.6305 20.1324 10.2659 20.5312C9.9977 20.8245 9.73107 21.1197 9.46417 21.4137C9.19971 21.7047 8.95201 22.0122 8.66727 22.2829C8.24434 22.6849 7.73461 22.9267 7.12646 22.8994C6.73625 22.8821 6.37904 22.7492 6.05779 22.5321C5.39473 22.0836 4.94801 21.4563 4.54131 20.7975C4.02023 19.9533 3.62029 19.054 3.27794 18.13C3.04106 17.4914 2.8031 16.8523 2.59623 16.2045C2.37152 15.5006 2.17439 14.7877 1.9805 14.0751C1.83568 13.5366 1.70207 12.9955 1.57975 12.4518C1.43713 11.8344 1.30515 11.2147 1.18387 10.593C1.10328 10.1732 1.0565 9.7473 0.991333 9.32455C0.903449 8.75476 0.887224 8.17972 0.919133 7.60757C0.947526 7.09214 1.02378 6.57802 1.0995 6.066C1.20442 5.35757 1.44481 4.68906 1.79067 4.05783C2.00241 3.67106 2.26525 3.31947 2.56919 2.99283C3.0681 2.45665 3.67193 2.06909 4.34364 1.77816C4.81308 1.57492 5.30901 1.45256 5.81441 1.35699C6.56454 1.2152 7.32142 1.22071 8.07858 1.23594C8.40956 1.2425 8.7392 1.30106 9.06991 1.33283C9.78191 1.40162 10.4798 1.54709 11.1689 1.72669C11.671 1.85745 12.1629 2.02681 12.661 2.17386C12.711 2.18856 12.7843 2.18725 12.8251 2.16125C13.5001 1.73352 14.2378 1.45125 15.0222 1.28977C15.32 1.22859 15.6271 1.2018 15.9316 1.1829C16.3018 1.16005 16.675 1.13905 17.0444 1.15979C17.4884 1.18447 17.9303 1.24802 18.3716 1.30683C18.5857 1.33519 18.7948 1.4074 19.0095 1.42709C19.1122 1.43655 19.2212 1.36355 19.3299 1.33913C19.884 1.21493 20.4356 1.07656 20.9946 0.978353C21.4107 0.905357 21.8358 0.87096 22.259 0.847328C22.7309 0.821071 23.2063 0.801903 23.6779 0.823959C24.275 0.852675 24.8683 0.933791 25.4504 1.06632C26.1743 1.2299 26.8687 1.46753 27.5288 1.79732C28.0221 2.04362 28.4909 2.3293 28.9131 2.68062C29.1897 2.91116 29.4728 3.13882 29.7227 3.39562C30.031 3.71228 30.3454 4.02921 30.5388 4.43489C30.6843 4.74079 30.7881 5.05745 30.8168 5.3925C30.8525 5.80894 30.8957 6.22696 30.8917 6.64393C30.8879 7.04278 30.8319 7.44137 30.7922 7.83917C30.7018 8.7461 30.4988 9.63334 30.2521 10.5088C30.0458 11.2319 29.8123 11.9475 29.5521 12.654C29.3144 13.3054 29.0402 13.9451 28.763 14.5821C28.559 15.0539 28.3372 15.5184 28.0983 15.9745C27.6448 16.8373 27.1732 17.6912 26.6278 18.5039C26.5337 18.6444 26.4445 18.7883 26.3525 18.9316C26.5905 19.0876 26.8601 19.1425 27.1316 19.1708C27.3898 19.1981 27.6532 19.2144 27.9112 19.1958C28.3241 19.1661 28.7357 19.1089 29.1462 19.0529C29.5529 18.9978 29.9515 18.8854 30.369 18.9151C30.7859 18.9445 31.0842 19.2522 31.0558 19.6317ZM25.1032 18.7512C24.9261 18.5291 24.7455 18.3096 24.5721 18.0848C24.3001 17.7319 24.1046 17.3378 23.9083 16.9418C23.7222 16.5666 23.494 16.2114 23.2979 15.8403C22.9559 15.1931 22.6076 14.5479 22.2926 13.8881C21.8964 13.0591 21.5841 12.2008 21.4856 11.2826C21.444 10.894 21.4334 10.5059 21.5143 10.1209C21.6438 9.50625 21.9745 9.02548 22.5305 8.69568C23.0462 8.38978 23.6208 8.29106 24.2095 8.26007C24.5748 8.2409 24.9418 8.25666 25.3209 8.25666L25.3082 8.19443C25.0724 7.71576 24.852 7.22894 24.594 6.76156C24.2301 6.10197 23.7644 5.50724 23.2458 4.95583C22.8615 4.54753 22.4453 4.16863 21.9894 3.83385C21.5411 3.50432 21.0687 3.20998 20.5646 2.96919C19.9635 2.6822 19.3375 2.46032 18.6806 2.3188C18.0495 2.18278 17.4143 2.09955 16.7669 2.09272C16.2148 2.08694 15.6661 2.1111 15.1282 2.23215C14.3165 2.41464 13.5739 2.73918 12.9279 3.26485C12.5705 3.55591 12.2511 3.88835 11.9768 4.25476C11.6534 4.68617 11.3925 5.15198 11.1694 5.64037C10.8633 6.31046 10.6532 7.00785 10.5096 7.72468C10.4377 8.08205 10.3814 8.44256 10.3241 8.80282C10.3041 8.92885 10.3025 9.05778 10.2908 9.20219C10.3906 9.15178 10.4625 9.11292 10.5361 9.07826L10.7754 8.97401C11.5847 8.61455 12.4233 8.38322 13.3246 8.40974C13.7075 8.42103 14.0739 8.49455 14.4143 8.65735C15.0674 8.97007 15.4495 9.50179 15.6155 10.1748C15.7302 10.6393 15.8086 11.1129 15.8849 11.5853C15.9446 11.9542 16.0057 12.3271 16.0128 12.6992C16.0228 13.243 15.9944 13.7878 15.9638 14.3313C15.9376 14.7935 15.8391 15.2491 15.6718 15.6825C15.3689 16.4684 15.0314 17.2414 14.7161 18.0229C14.612 18.281 14.532 18.5483 14.4335 18.8321C14.5855 18.8321 14.7088 18.8311 14.8321 18.8326C14.8803 18.8334 14.9295 18.8347 14.976 18.8455C15.3383 18.9285 15.6526 19.0879 15.9103 19.3586C16.254 19.7188 16.4343 20.1392 16.4435 20.6258C16.4487 20.8954 16.4195 21.1659 16.4208 21.4355C16.4265 22.6922 16.4362 23.9489 16.447 25.2053C16.4489 25.4107 16.4595 25.6163 16.4746 25.8213C16.5063 26.2506 16.5382 26.6802 16.5814 27.1085C16.6117 27.4123 16.6539 27.7155 16.7034 28.0172C16.7734 28.4447 16.9738 28.8252 17.2012 29.1888C17.397 29.5016 17.6515 29.7673 17.9868 29.9506C18.5565 30.262 19.1701 30.288 19.7885 30.1732C20.2063 30.0958 20.6165 29.9713 21.0222 29.8429C21.421 29.7187 21.7852 29.5072 22.0868 29.2248C22.371 28.9573 22.5727 28.6311 22.7087 28.2711C22.9726 27.573 23.0548 26.8378 23.1641 26.1083C23.2049 25.8352 23.2403 25.5614 23.2777 25.2878C23.3201 24.9764 23.3631 24.6652 23.4042 24.3541C23.4345 24.1222 23.4621 23.8898 23.4913 23.658C23.5329 23.325 23.577 22.9923 23.6168 22.6591C23.6473 22.4016 23.6733 22.1429 23.7003 21.8848C23.7352 21.555 23.7728 21.2252 23.8028 20.8949C23.8261 20.6441 23.8166 20.3889 23.8623 20.1429C23.9464 19.6918 24.166 19.3079 24.5778 19.0598C24.7501 18.9561 24.9445 18.8878 25.1357 18.8001L25.1032 18.7512ZM9.52826 16.8996C9.32288 16.4306 9.19915 15.9317 9.16212 15.4234C9.12751 14.9442 9.18619 14.4668 9.23676 13.9897C9.28597 13.5276 9.3268 13.0634 9.34114 12.5991C9.36493 11.8361 9.31193 11.0741 9.27434 10.3116C9.25163 9.85758 9.30598 9.39807 9.34763 8.94303C9.38521 8.53315 9.43199 8.12222 9.51177 7.71838C9.64562 7.04068 9.82328 6.37269 10.0758 5.72518C10.3157 5.11128 10.5913 4.5134 10.9804 3.97512C11.247 3.60594 11.5496 3.26091 11.8403 2.90014L11.754 2.87047C10.8081 2.57875 9.84681 2.35083 8.85818 2.25132C8.39063 2.20431 7.92147 2.17674 7.45257 2.1497C7.30871 2.1413 7.16269 2.1602 7.01829 2.17359C6.66081 2.20668 6.29899 2.21981 5.94719 2.28492C5.34849 2.39547 4.77414 2.58137 4.24223 2.88412C3.76469 3.15588 3.36366 3.50721 3.02781 3.92864C2.6568 4.39392 2.40721 4.92012 2.22793 5.48125C2.0162 6.1432 1.91533 6.82432 1.88802 7.51174C1.86423 8.11434 1.85233 8.72037 1.95941 9.32061C2.03918 9.76751 2.09245 10.2191 2.18034 10.6642C2.30013 11.271 2.42858 11.8765 2.57703 12.477C2.78931 13.3367 3.00131 14.1977 3.25279 15.0468C3.49346 15.8606 3.76496 16.6669 4.05916 17.4636C4.29983 18.1137 4.57809 18.7518 4.87121 19.3814C5.06213 19.7916 5.29333 20.1862 5.53562 20.5704C5.79332 20.9781 6.08645 21.3652 6.48423 21.6611C6.98611 22.0347 7.37469 22.0928 7.88469 21.6829C8.10319 21.5072 8.28788 21.2903 8.47798 21.0837C8.78003 20.7555 9.07153 20.4183 9.37223 20.0891C9.75514 19.6695 10.1429 19.2543 10.5277 18.8368C10.6091 18.7486 10.6873 18.6578 10.7665 18.5685L10.6356 18.4569C10.1604 18.017 9.78344 17.4869 9.52826 16.8996ZM24.0462 4.40915C24.3608 4.76433 24.6593 5.13263 24.941 5.51302C25.4818 6.25059 25.9139 7.04698 26.2322 7.89903C26.3731 8.27452 26.4856 8.65367 26.4353 9.0646C26.4004 9.35238 26.4034 9.64437 26.3771 9.93372C26.3552 10.1745 26.316 10.414 26.2838 10.654C26.2357 11.0158 26.1659 11.3766 26.1451 11.74C26.1254 12.0858 26.1459 12.4353 26.1684 12.7819C26.1911 13.134 26.24 13.4845 26.2733 13.8361C26.3109 14.2347 26.3615 14.6333 26.3731 15.0327C26.3825 15.3606 26.3525 15.6907 26.3231 16.0181C26.2879 16.4125 26.1849 16.7943 26.0313 17.1606C25.9234 17.4184 25.7944 17.6684 25.6724 17.9265L25.7214 17.9769L25.7957 18.0328L25.8707 17.9026C26.5032 16.936 27.0654 15.9276 27.5532 14.8848C27.8652 14.2117 28.1616 13.5318 28.442 12.8457C28.8812 11.7786 29.2286 10.6815 29.4974 9.56271C29.618 9.0604 29.7102 8.55048 29.7922 8.04056C29.856 7.64197 29.9093 7.23866 29.9212 6.83639C29.9339 6.40971 29.9095 5.97961 29.869 5.55398C29.8387 5.23259 29.757 4.9091 29.5496 4.64783C29.2162 4.22719 28.8563 3.82492 28.4136 3.50668C28.041 3.2386 27.6697 2.96368 27.2698 2.73813C26.6356 2.38103 25.9493 2.14313 25.2322 1.98113C24.5324 1.82279 23.8234 1.75452 23.1097 1.74008C22.689 1.73142 22.2663 1.77527 21.8464 1.8136C21.4659 1.84826 21.0879 1.90734 20.7047 1.95618C21.1157 2.18068 21.5211 2.38024 21.9034 2.61551C22.7074 3.10993 23.4277 3.70493 24.0462 4.40915ZM13.6015 18.2526C13.8614 17.4457 14.2153 16.6753 14.5582 15.9002C14.8362 15.2716 14.9882 14.6094 15.0387 13.9293C15.0639 13.594 15.0568 13.2545 15.0398 12.9181C15.0229 12.5439 14.9875 12.1708 14.9338 11.7998C14.8619 11.3269 14.7799 10.8538 14.6648 10.3896C14.5398 9.88725 14.2248 9.5375 13.685 9.40858C13.3562 9.33006 13.0296 9.33322 12.6972 9.38415C11.8854 9.50835 11.1424 9.79876 10.4501 10.2241C10.3108 10.3097 10.2343 10.3788 10.2584 10.5728C10.3092 10.9838 10.3203 11.4013 10.3184 11.8161C10.3157 12.4032 10.29 12.9904 10.267 13.5772C10.2595 13.7684 10.2311 13.9585 10.21 14.1488C10.1775 14.4403 10.1151 14.7315 10.1169 15.0224C10.1188 15.3223 10.1505 15.6292 10.2254 15.9196C10.4633 16.8405 10.9674 17.5941 11.7935 18.1258C12.3016 18.4527 12.8638 18.6176 13.4809 18.6488C13.5228 18.5112 13.5601 18.3813 13.6015 18.2526ZM12.6318 10.3525C12.5231 10.1309 12.5853 9.94738 12.8373 9.8623C12.8987 9.8413 12.962 9.81898 13.0258 9.81294C13.1134 9.80454 13.2026 9.81084 13.2913 9.81084C13.611 9.81241 13.9184 9.85574 14.1823 10.0532C14.3516 10.1798 14.397 10.3478 14.2875 10.5203C14.132 10.765 13.8949 10.8879 13.6037 10.9116C13.1448 10.9486 12.8227 10.7409 12.6318 10.3525ZM25.352 10.2717C25.3888 9.97652 25.4183 9.6806 25.4558 9.38547C25.471 9.26678 25.4066 9.23475 25.3041 9.23186C24.9818 9.2232 24.6595 9.21217 24.3371 9.20639C23.9737 9.20009 23.62 9.25681 23.2836 9.39098C22.9104 9.54012 22.6262 9.77907 22.5102 10.1735C22.4254 10.4643 22.3985 10.7682 22.431 11.0688C22.4762 11.5337 22.5847 11.9907 22.7536 12.4279C22.9791 13.0111 23.2152 13.594 23.4972 14.1528C23.8793 14.9093 24.3117 15.6416 24.7176 16.3865C24.826 16.5853 24.9172 16.7927 25.0302 17.0248C25.2581 16.5634 25.3826 16.0602 25.3955 15.5486C25.4066 15.1259 25.3717 14.7013 25.3463 14.2783C25.3304 14.0194 25.2928 13.7621 25.2668 13.5037C25.2306 13.1437 25.1757 12.784 25.1673 12.4232C25.1589 12.0564 25.1857 11.6875 25.2181 11.3212C25.2487 10.9698 25.3085 10.6214 25.352 10.2717ZM24.6249 9.98755C24.5051 10.3087 24.249 10.4899 23.9169 10.5432C23.6073 10.5925 23.3361 10.4815 23.1343 10.2417C22.9908 10.0711 23.0457 9.86887 23.2609 9.7536C23.5081 9.62074 23.7798 9.58713 24.1003 9.56691C24.1873 9.5824 24.3185 9.59527 24.4431 9.62992C24.624 9.67955 24.6908 9.81163 24.6249 9.98755ZM15.0463 19.8761C14.8692 19.7356 14.635 19.7275 14.4665 19.8816C14.2575 20.0733 14.0736 20.2926 13.8897 20.5087C13.6775 20.7584 13.4784 21.018 13.2045 21.2116C12.8059 21.4928 12.3414 21.6094 11.8744 21.7197C11.5031 21.8074 11.1302 21.8887 10.7578 21.973L10.7532 22.0198C10.8638 22.0694 10.9709 22.1314 11.0861 22.1668C11.654 22.3414 12.2316 22.4283 12.8316 22.379C13.2648 22.3433 13.6775 22.2516 14.0685 22.0715C14.6066 21.8239 15.0206 21.4316 15.3727 20.9753C15.4316 20.8991 15.4584 20.7865 15.4654 20.6883C15.4895 20.3414 15.3081 20.0835 15.0463 19.8761ZM29.0404 20.0142C28.5834 20.0618 28.1259 20.1122 27.6675 20.1376C27.4463 20.15 27.2219 20.109 26.9985 20.0914C26.624 20.062 26.2584 19.9811 25.9418 19.7868C25.7584 19.6747 25.6062 19.6621 25.4115 19.7257C25.1335 19.8165 24.9066 19.9546 24.8396 20.2471C24.7939 20.4448 24.7774 20.6497 24.759 20.8521C24.7555 20.8878 24.8014 20.9535 24.8366 20.9624C25.051 21.0173 25.2666 21.0821 25.4859 21.1013C25.7552 21.1249 26.0294 21.1173 26.3006 21.1042C26.5935 21.09 26.8882 21.0716 27.1767 21.0244C27.8568 20.9135 28.5147 20.7329 29.0991 20.3585C29.3098 20.2232 29.5185 20.0851 29.7278 19.9483L29.7105 19.9194C29.4872 19.9517 29.2649 19.9911 29.0404 20.0142Z" fill="#121314"/>
</svg>
