<svg width="31" height="21" viewBox="0 0 31 21" fill="none" xmlns="http://www.w3.org/2000/svg">
<path d="M30.6091 10.0008C30.5653 9.90201 29.5066 7.55326 27.1528 5.19951C24.0166 2.06326 20.0553 0.405762 15.6953 0.405762C11.3353 0.405762 7.37405 2.06326 4.2378 5.19951C1.88405 7.55326 0.820301 9.90576 0.781551 10.0008C0.724692 10.1287 0.695312 10.2671 0.695312 10.407C0.695312 10.547 0.724692 10.6854 0.781551 10.8133C0.825301 10.912 1.88405 13.2595 4.2378 15.6133C7.37405 18.7483 11.3353 20.4058 15.6953 20.4058C20.0553 20.4058 24.0166 18.7483 27.1528 15.6133C29.5066 13.2595 30.5653 10.912 30.6091 10.8133C30.6659 10.6854 30.6953 10.547 30.6953 10.407C30.6953 10.2671 30.6659 10.1287 30.6091 10.0008ZM15.6953 18.4058C11.8478 18.4058 8.48655 17.007 5.70405 14.2495C4.56236 13.1141 3.59104 11.8195 2.8203 10.4058C3.59083 8.99194 4.56217 7.69723 5.70405 6.56201C8.48655 3.80451 11.8478 2.40576 15.6953 2.40576C19.5428 2.40576 22.9041 3.80451 25.6866 6.56201C26.8305 7.69696 27.8039 8.99166 28.5766 10.4058C27.6753 12.0883 23.7491 18.4058 15.6953 18.4058ZM15.6953 4.40576C14.5086 4.40576 13.3486 4.75766 12.3619 5.41694C11.3752 6.07623 10.6061 7.0133 10.152 8.10966C9.6979 9.20602 9.57908 10.4124 9.81059 11.5763C10.0421 12.7402 10.6135 13.8093 11.4527 14.6484C12.2918 15.4875 13.3609 16.059 14.5248 16.2905C15.6886 16.522 16.895 16.4032 17.9914 15.949C19.0878 15.4949 20.0248 14.7259 20.6841 13.7392C21.3434 12.7525 21.6953 11.5924 21.6953 10.4058C21.6936 8.81497 21.061 7.28981 19.9361 6.16495C18.8113 5.04009 17.2861 4.40742 15.6953 4.40576ZM15.6953 14.4058C14.9042 14.4058 14.1308 14.1712 13.473 13.7316C12.8152 13.2921 12.3025 12.6674 11.9998 11.9365C11.697 11.2056 11.6178 10.4013 11.7722 9.6254C11.9265 8.84948 12.3075 8.13674 12.8669 7.57733C13.4263 7.01792 14.139 6.63696 14.9149 6.48262C15.6909 6.32828 16.4951 6.40749 17.226 6.71024C17.9569 7.01299 18.5817 7.52568 19.0212 8.18348C19.4607 8.84128 19.6953 9.61464 19.6953 10.4058C19.6953 11.4666 19.2739 12.484 18.5237 13.2342C17.7736 13.9843 16.7562 14.4058 15.6953 14.4058Z" fill="#fff"/>
</svg>
