<svg width="134" height="134" viewBox="0 0 134 134" fill="none" xmlns="http://www.w3.org/2000/svg">
<path d="M66.853 131.206C102.394 131.206 131.206 102.394 131.206 66.853C131.206 31.3118 102.394 2.5 66.853 2.5C31.3118 2.5 2.5 31.3118 2.5 66.853C2.5 102.394 31.3118 131.206 66.853 131.206Z" fill="#F2E0D8" stroke="#9779FB" stroke-width="5"/>
<mask id="mask0_128_946" style="mask-type:luminance" maskUnits="userSpaceOnUse" x="5" y="5" width="124" height="124">
<path d="M66.853 128.706C101.013 128.706 128.706 101.013 128.706 66.853C128.706 32.6925 101.013 5 66.853 5C32.6925 5 5 32.6925 5 66.853C5 101.013 32.6925 128.706 66.853 128.706Z" fill="white"/>
</mask>
<g mask="url(#mask0_128_946)">
<path d="M125.981 214.756H18.9319C18.4829 210.666 34.8799 123.677 54.1399 95.711C56.3249 92.538 75.0449 90.228 81.9179 98.121C118.32 139.925 126.86 213.753 125.981 214.756Z" fill="#3C3575"/>
<path d="M84.2129 100.846H50.9829C51.0729 100.686 51.1629 100.526 51.2629 100.366H83.8229C83.9529 100.526 84.0829 100.686 84.2129 100.846Z" fill="#BB4D9B"/>
<path d="M91.3027 110.436H46.3027C46.3727 110.276 46.4427 110.116 46.5227 109.956H90.9827C91.0927 110.116 91.2028 110.276 91.3027 110.436Z" fill="#BB4D9B"/>
<path d="M97.2226 120.036H42.4326C42.4926 119.876 42.5526 119.716 42.6126 119.556H96.9526C97.0426 119.716 97.1326 119.876 97.2226 120.036Z" fill="#BB4D9B"/>
<path d="M51.6029 102.931C48.5649 110.801 37.102 138.399 30.871 158.206C26.69 171.497 25.0979 182.652 24.1829 185.584C24.1829 185.584 55.7919 175.432 62.9089 175.414C73.8699 175.387 91.451 198.278 87.139 201.146C80.359 205.655 48.0409 220.995 22.2319 225.811C8.20195 228.429 -18.23 210.597 -16.142 196.421C-13.211 176.525 22.7419 124.081 36.4219 109.209C43.5249 101.488 55.3049 93.338 51.6029 102.931Z" fill="#C95F50"/>
<path d="M-18.0672 200.625C-17.4052 214.957 0.522808 227.021 10.9188 227.659C28.8508 228.747 82.6448 213.081 82.6448 213.081L61.7348 172.796C61.7348 172.796 25.1298 185.221 24.2008 185.571L24.2018 185.555C24.5258 184.487 33.5458 150.591 37.5758 139.359C37.7908 138.739 38.0398 138.105 38.2748 137.437C39.4348 134.326 41.0268 130.218 42.7848 125.779L42.8028 125.748C43.7768 123.291 44.8068 120.724 45.8188 118.188L45.8198 118.172C50.2408 107.19 54.5498 96.738 54.5498 96.738C48.3878 97.749 42.3038 100.988 32.3138 111.474C22.3408 121.943 -19.1602 176.982 -18.0672 200.625Z" fill="#3C3575"/>
<path d="M53.0626 100.366C52.9926 100.526 52.9326 100.686 52.8626 100.846H44.4126C44.6626 100.686 44.9126 100.526 45.1626 100.366H53.0626Z" fill="#BB4D9B"/>
<path d="M49.1427 109.956C49.0827 110.116 49.0128 110.276 48.9528 110.436H33.3228C33.4728 110.266 33.6328 110.116 33.7928 109.956H49.1427Z" fill="#BB4D9B"/>
<path d="M45.2728 119.556C45.2128 119.716 45.1527 119.876 45.0827 120.036H25.0728C25.2028 119.876 25.3328 119.716 25.4528 119.556H45.2728Z" fill="#BB4D9B"/>
<path d="M13.0059 191.512L24.1839 185.585L24.2009 185.57L24.2019 185.554C24.5259 184.486 33.5459 150.59 37.5759 139.358C37.7909 138.738 38.0399 138.104 38.2749 137.436C39.4349 134.325 41.0269 130.217 42.7849 125.778L13.0059 191.512Z" fill="#BB4D9B"/>
<path d="M11.8906 187.751C14.6956 187.789 31.6326 183.265 34.0996 185.59C49.1336 199.762 53.8856 196.907 57.0856 198.753C81.8566 213.005 114.937 229.747 126.745 229.853C144.652 229.999 151.784 214.971 148.804 200.772C142.92 172.703 105.065 117.975 87.9376 103.434C78.8556 95.735 79.5736 107.348 83.3306 119.97C85.5336 127.372 89.3866 138.377 93.3176 149.176C96.7996 158.796 106.025 183.381 106.185 183.958L106.184 183.974C106.198 184.007 106.214 184.024 106.213 184.041C106.225 184.107 106.16 184.119 106.016 184.078C105.229 183.933 84.0456 173.95 62.7426 168.466C55.2356 166.533 39.6026 163.78 33.9976 166.282C30.6646 167.77 30.6076 169.759 30.6076 169.759C30.6076 169.759 27.9356 169.516 25.1176 171.836C23.2486 173.375 22.6686 175.553 22.6686 175.553C22.6686 175.553 19.7446 175.962 18.2236 177.657C16.4096 179.678 16.2496 181.817 16.2496 181.817C12.3056 182.87 11.8906 187.751 11.8906 187.751Z" fill="#C95F50"/>
<path d="M78.5947 172.73C74.6747 171.403 72.9017 171.395 72.9017 171.395L50.6157 209.031C50.6157 209.031 112.002 231.13 124.607 232.423C137.211 233.716 151.55 223.79 151.792 207.965C152.132 185.725 115.865 132.316 97.6217 111.663C89.2607 102.197 79.5117 95.324 77.0267 96.874C74.0897 98.707 79.4227 110.608 82.2327 119.486C87.4217 135.876 106.014 184.078 106.014 184.078C106.014 184.078 83.2647 174.311 78.5947 172.73Z" fill="#3C3575"/>
<path d="M86.0924 100.846H76.3224C76.2924 100.676 76.2724 100.516 76.2524 100.366H85.4324C85.6524 100.516 85.8724 100.686 86.0924 100.846Z" fill="#BB4D9B"/>
<path d="M96.5124 110.436H79.1024C79.0524 110.276 78.9924 110.116 78.9424 109.956H96.0724C96.2224 110.116 96.3724 110.276 96.5124 110.436Z" fill="#BB4D9B"/>
<path d="M104.582 120.036H82.4024C82.3524 119.866 82.3024 119.706 82.2524 119.556H104.202C104.322 119.716 104.452 119.876 104.582 120.036Z" fill="#BB4D9B"/>
<path d="M56.1746 111.487C61.9426 113.561 73.1436 105.658 77.9946 98.774C78.3246 98.3 78.1546 92.908 78.2586 86.347C78.3376 82.365 78.5186 77.934 78.9756 73.902L52.9916 77.176C52.9916 77.176 54.5186 85.91 53.6776 92.934C53.6006 93.52 53.4806 94.06 53.3156 94.569C53.2986 94.644 53.2666 94.734 53.2476 94.839C52.3796 97.923 50.6006 109.479 56.1746 111.487Z" fill="#C95F50"/>
<path d="M53.2417 94.836C53.1917 95.003 53.1417 95.186 53.1087 95.403C68.6647 94.744 74.5807 87.904 78.4107 81.342C78.5277 78.84 78.6947 76.305 78.9777 73.903L52.9917 77.172C52.9917 77.172 54.5267 85.912 53.6757 92.934C53.6087 93.518 53.4757 94.052 53.3087 94.569C53.2917 94.636 53.2747 94.736 53.2417 94.836Z" fill="#3C3575"/>
<path d="M60.5878 55.289C59.6678 61.9 54.2197 66.605 48.4207 65.797C42.6207 64.99 38.6648 58.976 39.5858 52.365C40.5058 45.754 45.9538 41.05 51.7538 41.857C57.5528 42.665 61.5078 48.678 60.5878 55.289Z" fill="#BB4D9B"/>
<path d="M63.9338 56.18C62.9098 63.534 56.8498 68.768 50.3978 67.87C43.9458 66.972 39.5448 60.282 40.5688 52.928C41.5928 45.574 47.6528 40.34 54.1048 41.238C60.5568 42.136 64.9568 48.826 63.9338 56.18Z" fill="#6F84F0"/>
<path d="M85.997 41.595C88.722 50.628 83.8749 76.68 77.4379 82.472C68.1069 90.868 52.8709 91.626 45.7469 80.419C38.8419 69.556 45.7599 35.715 52.9459 30.456C63.5309 22.709 81.972 28.253 85.997 41.595Z" fill="#C95F50"/>
<path d="M63.8267 56.194C63.8527 56.13 63.9486 56.302 63.9336 56.374C63.5606 58.12 63.4267 60.183 64.9097 61.054C64.9557 61.081 64.9347 61.168 64.8767 61.15C62.9877 60.525 63.1927 57.788 63.8267 56.194Z" fill="#3C3575"/>
<path d="M65.7276 54.644C68.5916 54.941 67.7866 60.647 65.1336 60.371C62.5226 60.101 63.3266 54.395 65.7276 54.644Z" fill="#3C3575"/>
<path d="M53.0584 54.573C53.0544 54.503 52.9084 54.637 52.9004 54.71C52.7074 56.485 52.1874 58.486 50.5064 58.847C50.4544 58.858 50.4464 58.948 50.5064 58.948C52.4964 58.949 53.1604 56.286 53.0584 54.573Z" fill="#3C3575"/>
<path d="M51.7406 52.505C48.9286 51.889 47.9026 57.558 50.5076 58.129C53.0716 58.692 54.0976 53.021 51.7406 52.505Z" fill="#3C3575"/>
<path d="M68.3467 52.353C67.5967 52.048 66.9567 51.641 66.2467 51.263C65.4457 50.836 64.7637 50.578 64.3167 49.743C64.0777 49.295 64.3037 48.583 64.7167 48.31C65.6797 47.673 66.7907 47.952 67.7757 48.426C68.8447 48.941 69.5367 49.612 70.0397 50.685C70.5277 51.724 69.3357 52.755 68.3467 52.353Z" fill="#3C3575"/>
<path d="M49.9397 49.321C50.7487 49.304 51.4917 49.153 52.2897 49.052C53.1907 48.939 53.9197 48.942 54.6347 48.321C55.0187 47.988 55.0607 47.243 54.7727 46.84C54.1007 45.901 52.9637 45.766 51.8737 45.857C50.6907 45.957 49.8047 46.336 48.9517 47.159C48.1257 47.956 48.8727 49.344 49.9397 49.321Z" fill="#3C3575"/>
<path d="M62.1667 72.485C61.6847 72.839 61.1817 73.349 60.5337 73.312C59.9117 73.277 59.2297 72.898 58.6967 72.6C58.6437 72.571 58.5787 72.622 58.6077 72.68C58.9707 73.423 59.8767 73.984 60.7157 73.956C61.5357 73.929 62.0287 73.293 62.3267 72.589C62.3677 72.49 62.2377 72.434 62.1667 72.485Z" fill="#3C3575"/>
<path d="M61.0545 66.932C59.8485 68.327 58.2765 68.96 56.6605 69.043C55.9385 69.085 55.1965 69.005 54.4815 68.837C54.3395 68.814 54.1995 68.778 54.0745 68.731C53.9475 68.697 53.8335 68.666 53.6955 68.617C53.4935 68.558 53.4035 68.371 53.3965 68.171L53.3985 68.158C53.4085 68.094 53.4175 68.042 53.4405 67.98C53.4405 67.98 53.4405 67.98 53.4425 67.967L53.4675 67.812C53.6225 66.446 54.0465 64.395 54.0465 64.395C53.5135 64.574 50.8175 65.357 50.9585 64.651C52.1395 58.816 53.4535 52.325 55.8615 46.767C55.9315 46.58 56.2215 46.666 56.1775 46.858C55.2645 52.512 53.3635 57.967 52.3555 63.631C53.2075 63.438 54.6075 63.055 55.3175 63.169C55.5035 63.252 54.4274 67.118 54.4074 67.737C54.4074 67.737 54.4035 67.763 54.4095 67.804C56.6545 68.418 58.4755 67.971 60.9115 66.748C61.0575 66.667 61.1805 66.806 61.0545 66.932Z" fill="#3C3575"/>
<path d="M85.8068 59.484C84.1778 58.503 81.4588 52.658 80.2388 50.257C78.9728 47.763 80.0758 36.756 80.4808 33.471C83.0088 35.611 84.9708 38.39 85.9978 41.691C87.1708 45.451 86.9558 52.439 85.8068 59.484Z" fill="#3C3575"/>
<path d="M55.1188 37.001C56.7018 39.937 59.6718 41.924 63.0248 42.12C66.2908 42.311 69.9048 40.83 71.7158 38.027C71.7698 37.944 71.8998 38.027 71.8458 38.111C69.9078 41.109 66.6618 43.209 62.9888 42.905C59.5418 42.62 56.2898 40.28 54.9078 37.112C54.8458 36.972 55.0448 36.865 55.1188 37.001Z" fill="#3C3575"/>
<path d="M70.0749 15.884C75.5159 17.222 79.8619 21.366 81.0319 25.537C81.7429 28.071 81.413 30.409 80.526 32.665C80.49 32.756 80.299 32.693 80.328 32.599C81.467 28.966 80.577 24.341 77.186 20.873C73.928 17.541 69.0409 15.645 64.2909 16.33C61.8109 16.687 59.6349 17.726 58.291 19.282C58.1409 19.456 57.7599 19.236 57.8929 19.054C60.1349 15.971 65.1499 14.673 70.0749 15.884Z" fill="#3C3575"/>
<path d="M35.6738 20.663C37.1368 18.163 39.5318 16.273 42.2568 15.324C46.0738 13.994 49.8008 15.146 53.4788 16.366C53.5788 16.399 53.5278 16.554 53.4288 16.521C50.2938 15.493 47.0548 14.632 43.7718 15.483C41.0958 16.177 38.6278 17.779 37.0038 20.031C33.6328 24.703 34.3018 31.578 38.5938 35.447C41.0238 37.637 44.3858 38.756 47.6408 38.451C47.7688 38.439 47.8178 38.634 47.6858 38.65C41.6998 39.369 35.7298 35.384 34.4078 29.435C33.7548 26.502 34.1468 23.274 35.6738 20.663Z" fill="#3C3575"/>
<path d="M86.6039 47.577C86.6039 47.577 93.9379 38.922 90.8299 32.305C89.0689 28.556 80.8069 27.197 80.8069 27.197C80.8069 27.197 79.1979 21.925 72.7679 18.901C66.2689 15.846 57.2689 18.067 57.2689 18.067C57.2689 18.067 51.5849 12.934 44.7439 15.085C35.2059 18.084 33.4509 31.236 41.0839 37.249C46.4439 41.472 55.7399 37.939 55.7399 37.939C56.4999 38.216 63.4629 44.795 71.0799 38.962C71.0799 38.962 75.0519 44.413 80.1419 42.308C80.1419 42.308 81.4129 47.238 86.6039 47.577Z" fill="#3C3575"/>
<path d="M80.3589 62.822C80.3589 62.822 86.4468 54.531 90.2218 56.722C93.9978 58.912 89.2818 71.026 84.7538 72.592C80.2258 74.159 78.6938 69.996 78.6938 69.996L80.3589 62.822Z" fill="#C95F50"/>
<path d="M88.7841 60.16C88.8561 60.155 88.8681 60.256 88.8051 60.28C85.6281 61.482 83.9031 64.363 82.6721 67.362C83.6361 66.219 84.9251 65.61 86.4601 66.761C86.5401 66.822 86.4591 66.948 86.3711 66.927C85.0881 66.621 84.1521 66.823 83.2571 67.835C82.6231 68.552 82.1801 69.467 81.7191 70.3C81.5651 70.578 81.0601 70.416 81.1751 70.094C81.1831 70.071 81.1931 70.046 81.2021 70.022C81.2151 66.008 84.4661 60.464 88.7841 60.16Z" fill="#3C3575"/>
<path d="M88.7991 53.194C88.7991 53.194 92.4141 40.867 89.6831 32.185C86.6431 22.521 72.2611 11.064 57.2681 18.067C57.2681 18.067 76.1241 17.703 83.9011 31.766C87.1771 37.69 83.9441 52.688 83.9441 52.688L88.7991 53.194Z" fill="#6F84F0"/>
<path d="M74.037 57.946C72.61 65.233 76.635 72.155 83.028 73.408C89.421 74.661 95.761 69.769 97.188 62.482C98.616 55.195 94.59 48.273 88.198 47.02C81.804 45.767 75.464 50.659 74.037 57.946Z" fill="#6F84F0"/>
<path d="M77.4899 58.193C76.2069 64.743 79.8249 70.965 85.5709 72.091C91.3169 73.217 97.016 68.82 98.299 62.27C99.582 55.72 95.9639 49.498 90.2179 48.372C84.4719 47.246 78.7729 51.643 77.4899 58.193Z" fill="#BB4D9B"/>
</g>
</svg>
