<svg width="40" height="36" viewBox="0 0 40 36" fill="none" xmlns="http://www.w3.org/2000/svg">
<path d="M20.0001 21.5016C22.0116 21.5016 23.6423 19.871 23.6423 17.8595C23.6423 15.8479 22.0116 14.2173 20.0001 14.2173C17.9886 14.2173 16.3579 15.8479 16.3579 17.8595C16.3579 19.871 17.9886 21.5016 20.0001 21.5016Z" fill="#4D4D56"/>
<path d="M33.8339 11.853C33.131 11.5974 32.3962 11.3419 31.6294 11.1182C31.8211 10.3514 31.9808 9.58466 32.1086 8.84984C32.7796 4.63259 32.0447 1.66134 30 0.511182C29.393 0.159744 28.722 0 27.9553 0C25.7189 0 22.8754 1.66134 20 4.44089C17.1246 1.66134 14.2811 0 12.0447 0C11.278 0 10.607 0.159744 10 0.511182C7.95527 1.69329 7.22045 4.66454 7.89137 8.84984C8.01917 9.58466 8.17891 10.3514 8.37061 11.1182C7.60383 11.3419 6.86901 11.5655 6.16613 11.853C2.17252 13.3866 0 15.4952 0 17.8594C0 20.2236 2.20447 22.3323 6.16613 23.8658C6.86901 24.1214 7.60383 24.377 8.37061 24.6006C8.17891 25.3674 8.01917 26.1342 7.89137 26.869C7.22045 31.0863 7.95527 34.0575 10 35.2077C10.607 35.5591 11.278 35.7188 12.0447 35.7188C14.3131 35.7188 17.1565 34.0575 20 31.278C22.8754 34.0575 25.7189 35.7188 27.9553 35.7188C28.722 35.7188 29.393 35.5591 30 35.2077C32.0447 34.0256 32.7796 31.0543 32.1086 26.869C31.9808 26.1342 31.8211 25.3674 31.6294 24.6006C32.3962 24.377 33.131 24.1534 33.8339 23.8658C37.8275 22.3323 40 20.2236 40 17.8594C40 15.4952 37.8275 13.3866 33.8339 11.853ZM29.1054 2.10863C30.4153 2.8754 30.8626 5.23962 30.3195 8.59425C30.2236 9.26517 30.0639 9.96805 29.8722 10.7029C28.2109 10.3195 26.4537 10.0639 24.6006 9.90415C23.5144 8.37061 22.3962 6.9968 21.278 5.7508C23.6422 3.41853 26.0383 1.82109 27.9872 1.82109C28.4026 1.82109 28.7859 1.91693 29.1054 2.10863ZM25.5272 21.0543C24.9521 22.0767 24.2811 23.099 23.5783 24.1214C22.3962 24.2173 21.2141 24.2492 20 24.2492C18.754 24.2492 17.5719 24.2173 16.4217 24.1214C15.7188 23.099 15.0799 22.0767 14.5048 21.0543C13.8978 20 13.3227 18.9137 12.8115 17.8594C13.3227 16.8051 13.8978 15.7188 14.5048 14.6645C15.0799 13.6422 15.7508 12.6198 16.4537 11.5974C17.6358 11.5016 18.8179 11.4696 20.0319 11.4696C21.278 11.4696 22.4601 11.5016 23.6102 11.5974C24.3131 12.6198 24.9521 13.6422 25.5272 14.6645C26.1342 15.7188 26.7093 16.8051 27.2204 17.8594C26.6773 18.9137 26.1342 19.9681 25.5272 21.0543ZM28.1789 20C28.6581 21.1182 29.0415 22.2045 29.393 23.2907C28.3067 23.5463 27.1565 23.738 25.9425 23.8978C26.3259 23.2907 26.7412 22.6518 27.0927 21.9808C27.476 21.3099 27.8275 20.639 28.1789 20ZM20 28.6581C19.2332 27.8275 18.4984 26.9329 17.7955 26.0064C18.5304 26.0383 19.2652 26.0703 20 26.0703C20.7348 26.0703 21.4696 26.0383 22.2045 26.0064C21.5016 26.9329 20.7668 27.8275 20 28.6581ZM14.0575 23.8658C12.8435 23.7061 11.6933 23.5144 10.607 23.2588C10.9585 22.2045 11.3419 21.0863 11.8211 19.9681C12.1725 20.607 12.524 21.278 12.9073 21.9169C13.2907 22.6198 13.6741 23.2268 14.0575 23.8658ZM11.8211 15.7188C11.3419 14.6006 10.9585 13.5144 10.607 12.4281C11.6933 12.1725 12.8435 11.9808 14.0575 11.8211C13.6741 12.4281 13.2588 13.0671 12.9073 13.738C12.524 14.4089 12.1725 15.0799 11.8211 15.7188ZM20 7.0607C20.7668 7.89137 21.5016 8.78594 22.2045 9.71246C21.4696 9.68051 20.7348 9.64856 20 9.64856C19.2652 9.64856 18.5304 9.68051 17.7955 9.71246C18.4984 8.78594 19.2332 7.89137 20 7.0607ZM27.0927 13.77L25.9425 11.853C27.1565 12.0128 28.3067 12.2045 29.393 12.4601C29.0415 13.5144 28.6581 14.6326 28.1789 15.7508C27.8275 15.0799 27.476 14.4089 27.0927 13.77ZM9.68051 8.59425C9.13738 5.23962 9.58466 2.8754 10.8946 2.10863C11.2141 1.91693 11.5974 1.82109 12.0128 1.82109C13.9297 1.82109 16.3259 3.38658 18.722 5.7508C17.6038 6.96486 16.4856 8.37061 15.3994 9.90415C13.5463 10.0639 11.7891 10.3514 10.1278 10.7029C9.9361 9.96805 9.80831 9.26517 9.68051 8.59425ZM1.78914 17.8594C1.78914 16.3578 3.61022 14.7604 6.80511 13.5783C7.44409 13.3227 8.14697 13.099 8.84984 12.9073C9.36102 14.5048 10 16.1981 10.7668 17.8914C10 19.5847 9.32907 21.246 8.84984 22.8434C4.44089 21.5655 1.78914 19.6486 1.78914 17.8594ZM10.8946 33.6102C9.58466 32.8434 9.13738 30.4792 9.68051 27.1246C9.77636 26.4537 9.9361 25.7508 10.1278 25.016C11.7891 25.3994 13.5463 25.655 15.3994 25.8147C16.4856 27.3482 17.6038 28.722 18.722 29.9681C16.3578 32.3003 13.9617 33.8978 12.0128 33.8978C11.5974 33.8978 11.2141 33.8019 10.8946 33.6102ZM30.3195 27.1246C30.8626 30.4792 30.4153 32.8434 29.1054 33.6102C28.7859 33.8019 28.4026 33.8978 27.9872 33.8978C26.0703 33.8978 23.6741 32.3323 21.278 29.9681C22.3962 28.754 23.5144 27.3482 24.6006 25.8147C26.4537 25.655 28.2109 25.3674 29.8722 25.016C30.0639 25.7508 30.1917 26.4537 30.3195 27.1246ZM33.1949 22.1406C32.5559 22.3962 31.853 22.6198 31.1502 22.8115C30.639 21.2141 30 19.5208 29.2332 17.8275C30 16.1342 30.6709 14.4728 31.1502 12.8754C35.5591 14.1534 38.2109 16.0703 38.2109 17.8594C38.2109 19.361 36.3578 20.9585 33.1949 22.1406Z" fill="#4D4D56"/>
</svg>
