<svg width="24" height="24" viewBox="0 0 24 24" fill="none" xmlns="http://www.w3.org/2000/svg">
<path fill-rule="evenodd" clip-rule="evenodd" d="M11.9999 0C5.37341 0 0 5.37221 0 11.9999C0 17.302 3.43834 21.7998 8.20626 23.3868C8.80578 23.4981 9.02596 23.1265 9.02596 22.8095C9.02596 22.5234 9.01483 21.5781 9.00966 20.5754C5.67128 21.3013 4.96684 19.1595 4.96684 19.1595C4.42097 17.7725 3.63447 17.4037 3.63447 17.4037C2.54552 16.6589 3.71654 16.6744 3.71654 16.6744C4.92133 16.7589 5.55602 17.911 5.55602 17.911C6.6263 19.7452 8.36325 19.215 9.04801 18.9086C9.15572 18.133 9.4667 17.6034 9.80988 17.3038C7.14454 17.0007 4.34248 15.9716 4.34248 11.3736C4.34248 10.0634 4.81145 8.99297 5.57908 8.15241C5.45428 7.85037 5.04354 6.62987 5.69512 4.97697C5.69512 4.97697 6.7026 4.65446 8.99575 6.20701C9.95315 5.94093 10.9799 5.8072 11.9999 5.80263C13.0193 5.8072 14.0466 5.94054 15.0058 6.20661C17.2962 4.65407 18.3025 4.97658 18.3025 4.97658C18.9557 6.62928 18.5449 7.84997 18.4203 8.15202C19.1897 8.99257 19.6553 10.063 19.6553 11.3732C19.6553 15.9821 16.8481 16.9967 14.176 17.294C14.6066 17.6664 14.9901 18.3969 14.9901 19.5162C14.9901 21.1218 14.9762 22.4141 14.9762 22.8093C14.9762 23.1286 15.1924 23.5028 15.8005 23.385C20.5656 21.7965 24 17.3 24 11.9999C23.9998 5.37261 18.627 0 11.9999 0Z" fill="#4D4D56"/>
<path d="M4.54473 17.229C4.5183 17.2886 4.42451 17.3065 4.33906 17.2658C4.25163 17.2268 4.20295 17.1456 4.23116 17.0857C4.257 17.0241 4.35099 17.0072 4.43782 17.0484C4.52526 17.0875 4.57494 17.1696 4.54453 17.2292L4.54473 17.229ZM5.03079 17.7713C4.97375 17.8244 4.86188 17.7997 4.78597 17.7157C4.70728 17.6322 4.69258 17.5203 4.7508 17.4665C4.81001 17.4136 4.91851 17.4387 4.9972 17.5221C5.0755 17.6068 5.091 17.7176 5.03098 17.7715L5.03079 17.7713ZM5.50412 18.4622C5.4306 18.5135 5.31018 18.4656 5.23586 18.3589C5.16233 18.252 5.16233 18.1238 5.23784 18.0727C5.31196 18.0215 5.4306 18.0678 5.50611 18.1735C5.57923 18.2818 5.57923 18.4102 5.50412 18.4622ZM6.15213 19.1301C6.08655 19.2026 5.94626 19.1832 5.84372 19.0844C5.739 18.9876 5.70979 18.8499 5.77556 18.7776C5.84233 18.7049 5.98322 18.7251 6.08635 18.8233C6.19107 18.9199 6.22267 19.0578 6.15252 19.1299L6.15213 19.1301ZM7.04634 19.5178C7.01712 19.6118 6.8824 19.6545 6.74628 19.6144C6.61056 19.5732 6.52173 19.4633 6.54955 19.3684C6.57737 19.2736 6.71309 19.2293 6.85001 19.272C6.98573 19.3129 7.07455 19.4222 7.04634 19.5178ZM8.02857 19.5895C8.03195 19.6885 7.9167 19.7704 7.77422 19.7723C7.63055 19.7757 7.5143 19.6954 7.51291 19.5981C7.51291 19.4981 7.62578 19.4172 7.76925 19.4145C7.91173 19.4119 8.02877 19.4914 8.02877 19.5893L8.02857 19.5895ZM8.94226 19.4341C8.95935 19.5305 8.86019 19.6297 8.71851 19.6561C8.57941 19.6819 8.45024 19.6219 8.43236 19.5263C8.41527 19.4274 8.51622 19.3282 8.65532 19.3026C8.7972 19.2781 8.92437 19.3362 8.94226 19.4341Z" fill="#4D4D56"/>
</svg>
