<svg width="32" height="32" viewBox="0 0 32 32" fill="none" xmlns="http://www.w3.org/2000/svg">
<path d="M29.5385 0H2.46154C1.8087 0 1.1826 0.25934 0.720968 0.720968C0.25934 1.1826 0 1.8087 0 2.46154V29.5385C0 30.1913 0.25934 30.8174 0.720968 31.279C1.1826 31.7407 1.8087 32 2.46154 32H29.5385C30.1913 32 30.8174 31.7407 31.279 31.279C31.7407 30.8174 32 30.1913 32 29.5385V2.46154C32 1.8087 31.7407 1.1826 31.279 0.720968C30.8174 0.25934 30.1913 0 29.5385 0ZM29.5385 29.5385H2.46154V2.46154H29.5385V29.5385ZM11.0769 13.5385V23.3846C11.0769 23.711 10.9473 24.0241 10.7164 24.2549C10.4856 24.4857 10.1726 24.6154 9.84615 24.6154C9.51973 24.6154 9.20668 24.4857 8.97587 24.2549C8.74506 24.0241 8.61539 23.711 8.61539 23.3846V13.5385C8.61539 13.212 8.74506 12.899 8.97587 12.6682C9.20668 12.4374 9.51973 12.3077 9.84615 12.3077C10.1726 12.3077 10.4856 12.4374 10.7164 12.6682C10.9473 12.899 11.0769 13.212 11.0769 13.5385ZM24.6154 17.8462V23.3846C24.6154 23.711 24.4857 24.0241 24.2549 24.2549C24.0241 24.4857 23.711 24.6154 23.3846 24.6154C23.0582 24.6154 22.7451 24.4857 22.5143 24.2549C22.2835 24.0241 22.1538 23.711 22.1538 23.3846V17.8462C22.1538 17.0301 21.8297 16.2475 21.2526 15.6704C20.6756 15.0934 19.893 14.7692 19.0769 14.7692C18.2609 14.7692 17.4782 15.0934 16.9012 15.6704C16.3242 16.2475 16 17.0301 16 17.8462V23.3846C16 23.711 15.8703 24.0241 15.6395 24.2549C15.4087 24.4857 15.0957 24.6154 14.7692 24.6154C14.4428 24.6154 14.1298 24.4857 13.8989 24.2549C13.6681 24.0241 13.5385 23.711 13.5385 23.3846V13.5385C13.54 13.237 13.6521 12.9466 13.8536 12.7223C14.055 12.498 14.3318 12.3554 14.6313 12.3217C14.9309 12.2879 15.2325 12.3653 15.4788 12.5391C15.7251 12.7129 15.8991 12.9711 15.9677 13.2646C16.8003 12.6998 17.771 12.3725 18.7756 12.3177C19.7802 12.263 20.7808 12.4829 21.6698 12.9539C22.5588 13.4249 23.3028 14.1292 23.8217 14.9911C24.3407 15.8531 24.6151 16.8401 24.6154 17.8462ZM11.6923 9.23077C11.6923 9.5959 11.584 9.95284 11.3812 10.2564C11.1783 10.56 10.89 10.7967 10.5526 10.9364C10.2153 11.0761 9.84411 11.1127 9.48599 11.0415C9.12787 10.9702 8.79891 10.7944 8.54073 10.5362C8.28254 10.278 8.10671 9.94906 8.03547 9.59094C7.96424 9.23282 8.0008 8.86162 8.14053 8.52428C8.28026 8.18694 8.51689 7.89861 8.82049 7.69575C9.12409 7.49289 9.48102 7.38462 9.84615 7.38462C10.3358 7.38462 10.8054 7.57912 11.1516 7.92534C11.4978 8.27156 11.6923 8.74114 11.6923 9.23077Z" fill="#9779FB"/>
</svg>
