<svg width="40" height="63" viewBox="0 0 40 63" fill="none" xmlns="http://www.w3.org/2000/svg">
<path d="M33.3333 0H6.66667C4.89856 0 3.20286 0.702379 1.95262 1.95262C0.702379 3.20286 0 4.89856 0 6.66667V55.5556C0 57.3237 0.702379 59.0194 1.95262 60.2696C3.20286 61.5198 4.89856 62.2222 6.66667 62.2222H33.3333C35.1014 62.2222 36.7971 61.5198 38.0474 60.2696C39.2976 59.0194 40 57.3237 40 55.5556V6.66667C40 4.89856 39.2976 3.20286 38.0474 1.95262C36.7971 0.702379 35.1014 0 33.3333 0ZM35.5556 55.5556C35.5556 56.1449 35.3214 56.7102 34.9047 57.1269C34.4879 57.5437 33.9227 57.7778 33.3333 57.7778H6.66667C6.0773 57.7778 5.51207 57.5437 5.09532 57.1269C4.67857 56.7102 4.44444 56.1449 4.44444 55.5556V6.66667C4.44444 6.0773 4.67857 5.51207 5.09532 5.09532C5.51207 4.67857 6.0773 4.44444 6.66667 4.44444H33.3333C33.9227 4.44444 34.4879 4.67857 34.9047 5.09532C35.3214 5.51207 35.5556 6.0773 35.5556 6.66667V55.5556ZM23.3333 12.2222C23.3333 12.8815 23.1378 13.526 22.7716 14.0741C22.4053 14.6223 21.8847 15.0495 21.2756 15.3018C20.6665 15.5541 19.9963 15.6201 19.3497 15.4915C18.7031 15.3629 18.1092 15.0454 17.643 14.5792C17.1768 14.1131 16.8593 13.5191 16.7307 12.8725C16.6021 12.2259 16.6681 11.5557 16.9204 10.9466C17.1727 10.3375 17.5999 9.81693 18.1481 9.45066C18.6963 9.08438 19.3407 8.88889 20 8.88889C20.8841 8.88889 21.7319 9.24008 22.357 9.8652C22.9821 10.4903 23.3333 11.3382 23.3333 12.2222Z" fill="#9779FB"/>
</svg>
