<svg width="24" height="38" viewBox="0 0 24 38" fill="none" xmlns="http://www.w3.org/2000/svg">
<path d="M20 0H4C2.93913 0 1.92172 0.421427 1.17157 1.17157C0.421427 1.92172 0 2.93913 0 4V33.3333C0 34.3942 0.421427 35.4116 1.17157 36.1618C1.92172 36.9119 2.93913 37.3333 4 37.3333H20C21.0609 37.3333 22.0783 36.9119 22.8284 36.1618C23.5786 35.4116 24 34.3942 24 33.3333V4C24 2.93913 23.5786 1.92172 22.8284 1.17157C22.0783 0.421427 21.0609 0 20 0ZM21.3333 33.3333C21.3333 33.687 21.1929 34.0261 20.9428 34.2761C20.6928 34.5262 20.3536 34.6667 20 34.6667H4C3.64638 34.6667 3.30724 34.5262 3.05719 34.2761C2.80714 34.0261 2.66667 33.687 2.66667 33.3333V4C2.66667 3.64638 2.80714 3.30724 3.05719 3.05719C3.30724 2.80714 3.64638 2.66667 4 2.66667H20C20.3536 2.66667 20.6928 2.80714 20.9428 3.05719C21.1929 3.30724 21.3333 3.64638 21.3333 4V33.3333ZM14 7.33333C14 7.7289 13.8827 8.11557 13.6629 8.44447C13.4432 8.77337 13.1308 9.02972 12.7654 9.18109C12.3999 9.33247 11.9978 9.37208 11.6098 9.2949C11.2219 9.21773 10.8655 9.02725 10.5858 8.74755C10.3061 8.46784 10.1156 8.11148 10.0384 7.72351C9.96126 7.33555 10.0009 6.93342 10.1522 6.56797C10.3036 6.20251 10.56 5.89016 10.8889 5.67039C11.2178 5.45063 11.6044 5.33333 12 5.33333C12.5304 5.33333 13.0391 5.54405 13.4142 5.91912C13.7893 6.29419 14 6.8029 14 7.33333Z" fill="#4D4D56"/>
</svg>
