<svg width="32" height="32" viewBox="0 0 32 32" fill="none" xmlns="http://www.w3.org/2000/svg">
<path d="M31.6138 31.2424L30.95 30.5845C30.321 29.731 29.5118 28.9811 28.6626 28.3586C27.9853 27.8618 26.4649 27.1907 26.1822 26.3856L26.1302 26.3351C26.6106 26.2796 27.1713 26.1022 27.6146 25.9806C28.3591 25.7768 28.9736 25.8295 29.7425 25.6267C30.0891 25.5256 30.4781 25.4242 30.7318 25.3231V25.1208C30.4781 24.7135 30.116 24.1742 29.6922 23.8055C28.5836 22.8409 27.3982 21.8771 26.1523 21.0734C25.4614 20.6279 24.6195 20.3383 23.8874 19.9605C23.641 19.8332 23.2145 19.7671 23.0516 19.5555C22.6667 19.0545 22.4609 18.4193 22.164 17.8356C21.5426 16.6126 20.9336 15.277 20.383 13.9901C20.0075 13.1127 19.7631 12.2477 19.2947 11.4605C17.0466 7.68348 14.6272 5.40408 10.8789 3.16331C10.0809 2.68674 9.12077 2.49876 8.10581 2.25243C7.56179 2.21899 7.01701 2.18502 6.47249 2.15105C6.13984 2.00948 5.79399 1.59384 5.4824 1.39212C4.24008 0.590399 1.05489 -1.15331 0.135079 1.13931C-0.445732 2.5864 1.00287 3.99796 1.52101 4.73148C1.88512 5.24539 2.35074 5.82231 2.61031 6.40078C2.78159 6.78115 2.81077 7.16257 2.95717 7.56472C3.31698 8.55572 3.62984 9.63384 4.09571 10.5494C4.33092 11.013 4.59025 11.501 4.88788 11.9153C5.07007 12.1697 5.38268 12.2817 5.43215 12.6742C5.12665 13.1114 5.10914 13.7902 4.93736 14.3441C4.16345 16.8371 4.45576 19.9361 5.5811 21.7812C5.92619 22.348 6.73968 23.5628 7.85842 23.0966C8.83684 22.6895 8.67698 21.4273 8.95686 20.3139C9.02004 20.0619 8.90991 19.8762 9.16366 19.7069V19.7575C9.42327 20.373 9.70099 20.9803 9.99643 21.5787C10.6562 22.6643 11.7444 23.7987 12.7363 24.5641C13.2506 24.9611 13.731 25.6472 14.2385 25.8795V25.8533H14.2945C14.1659 25.594 13.9642 25.5507 13.7997 25.3856C13.4123 24.9977 12.9812 24.5087 12.6612 24.064C11.7589 22.8124 10.9617 21.4395 10.2352 20.0134C9.88808 19.3325 9.58639 18.5798 9.29408 17.887C9.18167 17.6199 9.18294 17.2149 8.94798 17.0767C8.6275 17.5844 8.1558 17.9946 7.9079 18.5943C7.51181 19.5526 7.46081 20.7215 7.31389 21.9332C7.22686 21.9648 7.26568 21.943 7.21468 21.9835C6.52501 21.8136 6.28294 21.0884 6.02641 20.4658C5.37811 18.892 5.25784 16.3579 5.82824 14.5466C5.97592 14.0775 6.643 12.6016 6.37277 12.1684C6.24387 11.7367 5.8186 11.4864 5.58085 11.1564C5.28625 10.7483 4.99242 10.211 4.78842 9.73963C4.25785 8.51294 4.01045 7.13534 3.45171 5.89491C3.18453 5.30192 2.73312 4.70167 2.36241 4.17479C1.95211 3.59062 1.49233 3.16046 1.17389 2.45442C1.06098 2.20343 0.90721 1.80153 1.07493 1.54354C1.12822 1.36956 1.20358 1.29696 1.37206 1.24017C1.65955 1.01382 2.45883 1.31537 2.75824 1.44216C3.5522 1.77923 4.21496 2.09038 4.88763 2.54569C5.21013 2.76453 5.53695 3.03574 5.9272 3.29503H6.37277C7.06979 3.29503 7.85055 3.35518 8.5019 3.55743C9.65261 3.91499 10.6841 4.47583 11.6209 5.08023C14.4744 6.92169 16.8076 9.54516 18.4039 12.6717C18.6606 13.1752 18.7718 13.6567 18.9979 14.1906C19.4541 15.2674 20.0291 16.3758 20.483 17.4288C20.9362 18.4797 21.3777 19.5399 22.0181 20.4142C22.3548 20.8737 23.655 21.1205 24.246 21.3759C24.6603 21.5546 25.3391 21.7413 25.7314 21.9827C26.4806 22.4447 27.2066 22.9949 27.91 23.5008C28.2611 23.7534 29.3411 24.3082 29.3951 24.7656C27.6537 24.7169 26.3238 24.8828 25.1868 25.3726C24.8638 25.5118 24.3482 25.5157 24.2954 25.9293C24.4731 26.1194 24.5007 26.4035 24.6418 26.6374C24.913 27.086 25.3715 27.688 25.7806 28.0033C26.2277 28.3482 26.688 28.7166 27.167 29.0151C28.0193 29.5458 28.9703 29.8492 29.7909 30.381C30.2746 30.6947 30.7952 31.0896 31.2664 31.4433C31.4999 31.6183 31.4925 31.8903 32 32V31.9497C31.7465 31.7436 31.76 31.4589 31.6138 31.2424ZM7.26416 5.49042C6.90106 5.48342 6.62626 5.53113 6.37252 5.59128V5.62914H6.42276C6.59606 5.88843 6.90182 6.23328 7.11572 6.5465L7.61102 7.61165L7.65999 7.56317C7.96676 7.34199 8.10734 6.98988 8.10556 6.45056C7.983 6.31858 7.96448 6.15342 7.85842 5.99577C7.71683 5.78601 7.44254 5.66699 7.26416 5.49042Z" fill="#121314"/>
</svg>
