<svg width="25" height="28" viewBox="0 0 25 28" fill="none" xmlns="http://www.w3.org/2000/svg">
<path d="M22.4385 9.40576H18.4385V6.40576C18.4385 4.81446 17.8063 3.28834 16.6811 2.16312C15.5559 1.0379 14.0298 0.405762 12.4385 0.405762C10.8472 0.405762 9.32105 1.0379 8.19584 2.16312C7.07062 3.28834 6.43848 4.81446 6.43848 6.40576V9.40576H2.43848C1.90804 9.40576 1.39934 9.61648 1.02426 9.99155C0.64919 10.3666 0.438477 10.8753 0.438477 11.4058V25.4058C0.438477 25.9362 0.64919 26.4449 1.02426 26.82C1.39934 27.195 1.90804 27.4058 2.43848 27.4058H22.4385C22.9689 27.4058 23.4776 27.195 23.8527 26.82C24.2278 26.4449 24.4385 25.9362 24.4385 25.4058V11.4058C24.4385 10.8753 24.2278 10.3666 23.8527 9.99155C23.4776 9.61648 22.9689 9.40576 22.4385 9.40576ZM8.43848 6.40576C8.43848 5.3449 8.8599 4.32748 9.61005 3.57733C10.3602 2.82719 11.3776 2.40576 12.4385 2.40576C13.4993 2.40576 14.5168 2.82719 15.2669 3.57733C16.017 4.32748 16.4385 5.3449 16.4385 6.40576V9.40576H8.43848V6.40576ZM22.4385 25.4058H2.43848V11.4058H22.4385V25.4058Z" fill="#FFFFFF"/>
</svg>
