<svg width="16" height="16" viewBox="0 0 16 16" fill="none" xmlns="http://www.w3.org/2000/svg">
<path d="M15.625 3.95025L12.0505 0.375011C11.9317 0.25612 11.7906 0.161808 11.6352 0.0974633C11.4799 0.0331182 11.3135 0 11.1453 0C10.9772 0 10.8107 0.0331182 10.6554 0.0974633C10.5001 0.161808 10.359 0.25612 10.2401 0.375011L0.375211 10.2407C0.255833 10.3592 0.161187 10.5001 0.0967749 10.6555C0.0323627 10.8108 -0.000530757 10.9774 6.47604e-06 11.1455V14.7208C6.47604e-06 15.0603 0.134865 15.3858 0.374914 15.6259C0.614964 15.8659 0.94054 16.0008 1.28002 16.0008H4.85526C5.02342 16.0013 5.19 15.9684 5.34534 15.904C5.50067 15.8396 5.64164 15.745 5.76007 15.6256L15.625 5.76067C15.7439 5.64181 15.8382 5.50069 15.9025 5.34537C15.9669 5.19005 16 5.02358 16 4.85546C16 4.68734 15.9669 4.52087 15.9025 4.36555C15.8382 4.21024 15.7439 4.06912 15.625 3.95025ZM4.85526 14.7208H1.28002V11.1455L8.3201 4.10545L11.8953 7.6807L4.85526 14.7208ZM12.8002 6.77509L9.22491 3.20064L11.1449 1.28062L14.7202 4.85506L12.8002 6.77509Z" fill="#4D4D56"/>
</svg>
