<svg width="108" height="108" viewBox="0 0 108 108" fill="none" xmlns="http://www.w3.org/2000/svg">
<path d="M54 0C43.3198 0 32.8795 3.16704 23.9992 9.10064C15.119 15.0342 8.19766 23.4679 4.11053 33.3351C0.0233974 43.2023 -1.04598 54.0599 1.03762 64.5349C3.12122 75.0098 8.26422 84.6317 15.8163 92.1837C23.3683 99.7358 32.9902 104.879 43.4651 106.962C53.9401 109.046 64.7977 107.977 74.6649 103.889C84.5321 99.8023 92.9658 92.881 98.8994 84.0008C104.833 75.1205 108 64.6802 108 54C107.985 39.6829 102.291 25.9566 92.1671 15.8329C82.0434 5.70924 68.3171 0.0151191 54 0ZM54 99.6923C44.9629 99.6923 36.1288 97.0125 28.6147 91.9917C21.1007 86.971 15.2442 79.8349 11.7858 71.4857C8.32749 63.1365 7.42263 53.9493 9.18568 45.0859C10.9487 36.2224 15.3005 28.0808 21.6907 21.6907C28.0809 15.3005 36.2225 10.9487 45.0859 9.18566C53.9493 7.42261 63.1365 8.32747 71.4857 11.7858C79.8349 15.2442 86.971 21.1006 91.9918 28.6147C97.0125 36.1288 99.6923 44.9629 99.6923 54C99.6786 66.1141 94.8602 77.7282 86.2942 86.2941C77.7282 94.8601 66.1141 99.6785 54 99.6923ZM49.8462 58.1538V29.0769C49.8462 27.9752 50.2838 26.9187 51.0628 26.1397C51.8418 25.3607 52.8983 24.9231 54 24.9231C55.1017 24.9231 56.1582 25.3607 56.9372 26.1397C57.7162 26.9187 58.1539 27.9752 58.1539 29.0769V58.1538C58.1539 59.2555 57.7162 60.3121 56.9372 61.091C56.1582 61.87 55.1017 62.3077 54 62.3077C52.8983 62.3077 51.8418 61.87 51.0628 61.091C50.2838 60.3121 49.8462 59.2555 49.8462 58.1538ZM60.2308 76.8461C60.2308 78.0785 59.8653 79.2831 59.1807 80.3078C58.4961 81.3324 57.5229 82.131 56.3844 82.6026C55.2459 83.0742 53.9931 83.1976 52.7844 82.9572C51.5758 82.7168 50.4656 82.1233 49.5942 81.252C48.7228 80.3806 48.1294 79.2703 47.889 78.0617C47.6486 76.8531 47.7719 75.6003 48.2435 74.4617C48.7151 73.3232 49.5137 72.3501 50.5384 71.6654C51.563 70.9808 52.7677 70.6154 54 70.6154C55.6525 70.6154 57.2373 71.2718 58.4058 72.4403C59.5743 73.6088 60.2308 75.1936 60.2308 76.8461Z" fill="#9779FB"/>
</svg>
