<svg width="26" height="26" viewBox="0 0 26 26" fill="none" xmlns="http://www.w3.org/2000/svg">
<path d="M20.4503 15.105L16.4503 13.105C16.2929 13.0265 16.1175 12.991 15.9419 13.002C15.7664 13.0129 15.5968 13.07 15.4503 13.1675L13.6141 14.3925C12.7712 13.9291 12.0775 13.2354 11.6141 12.3925L12.8391 10.5562C12.9365 10.4098 12.9936 10.2402 13.0046 10.0646C13.0156 9.88907 12.9801 9.7137 12.9016 9.55625L10.9016 5.55625C10.8187 5.38884 10.6906 5.248 10.5317 5.14968C10.3729 5.05137 10.1896 4.99952 10.0028 5C8.67675 5 7.40499 5.52678 6.4673 6.46447C5.52962 7.40215 5.00284 8.67392 5.00284 10C5.00615 12.9164 6.16613 15.7123 8.22832 17.7745C10.2905 19.8367 13.0865 20.9967 16.0028 21C16.6594 21 17.3096 20.8707 17.9163 20.6194C18.5229 20.3681 19.0741 19.9998 19.5384 19.5355C20.0027 19.0712 20.371 18.52 20.6222 17.9134C20.8735 17.3068 21.0028 16.6566 21.0028 16C21.003 15.8142 20.9513 15.6321 20.8538 15.474C20.7562 15.3159 20.6165 15.1881 20.4503 15.105ZM16.0028 19C13.6167 18.9974 11.3291 18.0483 9.6418 16.361C7.95455 14.6738 7.00548 12.3861 7.00284 10C7.00264 9.3064 7.24279 8.63416 7.68242 8.09768C8.12204 7.5612 8.73397 7.19362 9.41409 7.0575L10.8491 9.9325L9.62784 11.75C9.53658 11.8869 9.4805 12.0442 9.46459 12.2079C9.44867 12.3717 9.4734 12.5368 9.53659 12.6888C10.2521 14.3892 11.6049 15.742 13.3053 16.4575C13.4577 16.5235 13.6241 16.5505 13.7895 16.5361C13.9549 16.5217 14.1142 16.4663 14.2528 16.375L16.0791 15.1575L18.9541 16.5925C18.8169 17.2734 18.4477 17.8856 17.9095 18.3247C17.3713 18.7637 16.6974 19.0024 16.0028 19ZM13.0028 3.09594e-07C10.7584 -0.000489452 8.55211 0.58011 6.59865 1.68529C4.6452 2.79046 3.01115 4.38256 1.85555 6.30662C0.699959 8.23069 0.0621895 10.4212 0.00432243 12.6648C-0.0535446 14.9085 0.470462 17.1289 1.52534 19.11L0.106588 23.3662C-0.0109317 23.7186 -0.0279865 24.0968 0.0573348 24.4583C0.142656 24.8199 0.326982 25.1505 0.589652 25.4132C0.852322 25.6759 1.18296 25.8602 1.5445 25.9455C1.90604 26.0308 2.2842 26.0138 2.63659 25.8962L6.89284 24.4775C8.6363 25.4048 10.5681 25.9228 12.5416 25.992C14.5151 26.0613 16.4785 25.68 18.2827 24.8772C20.0868 24.0743 21.6844 22.871 22.9541 21.3586C24.2238 19.8462 25.1322 18.0644 25.6105 16.1484C26.0887 14.2325 26.1242 12.2328 25.7143 10.301C25.3043 8.36934 24.4596 6.55642 23.2444 4.9999C22.0291 3.44337 20.4753 2.18415 18.7007 1.31782C16.9262 0.451486 14.9776 0.000810288 13.0028 3.09594e-07ZM13.0028 24C11.0691 24.0013 9.16921 23.4921 7.49534 22.5238C7.37278 22.4527 7.23652 22.4085 7.09559 22.394C6.95465 22.3796 6.81226 22.3953 6.67784 22.44L2.00284 24L3.56159 19.325C3.60652 19.1907 3.6224 19.0483 3.60818 18.9074C3.59396 18.7665 3.54995 18.6301 3.47909 18.5075C2.26655 16.4111 1.77972 13.9732 2.09412 11.572C2.40852 9.17068 3.50658 6.94027 5.21795 5.22674C6.92932 3.51321 9.15833 2.41234 11.5592 2.0949C13.9601 1.77747 16.3986 2.26122 18.4965 3.47111C20.5944 4.68099 22.2344 6.54939 23.162 8.78644C24.0897 11.0235 24.2532 13.5042 23.6271 15.8436C23.0011 18.1831 21.6205 20.2505 19.6995 21.7253C17.7786 23.2 15.4246 23.9996 13.0028 24Z" fill="#9779FB"/>
</svg>
