<svg width="64" height="52" viewBox="0 0 64 52" fill="none" xmlns="http://www.w3.org/2000/svg">
<path d="M16.2984 16.5737L5.46614 25.6006L16.2984 34.6274C16.5198 34.8047 16.7037 35.0244 16.8392 35.2736C16.9748 35.5228 17.0592 35.7965 17.0877 36.0788C17.1162 36.361 17.0881 36.6461 17.005 36.9173C16.922 37.1886 16.7857 37.4406 16.6041 37.6585C16.4225 37.8765 16.1993 38.056 15.9475 38.1866C15.6957 38.3172 15.4203 38.3963 15.1376 38.4193C14.8549 38.4422 14.5704 38.4085 14.3008 38.3202C14.0312 38.2319 13.782 38.0906 13.5676 37.9048L0.767375 27.2379C0.52719 27.0377 0.333953 26.7872 0.201345 26.504C0.0687372 26.2208 0 25.9119 0 25.5992C0 25.2866 0.0687372 24.9777 0.201345 24.6945C0.333953 24.4113 0.52719 24.1608 0.767375 23.9605L13.5676 13.2937C14.0026 12.9316 14.5636 12.7571 15.1272 12.8086C15.6908 12.8601 16.2109 13.1334 16.573 13.5683C16.9351 14.0033 17.1096 14.5643 17.0581 15.1279C17.0066 15.6915 16.7333 16.2116 16.2984 16.5737ZM63.2326 23.9605L50.4324 13.2937C50.217 13.1144 49.9684 12.9792 49.7008 12.896C49.4332 12.8128 49.1519 12.7831 48.8728 12.8086C48.5937 12.8341 48.3224 12.9143 48.0743 13.0447C47.8262 13.175 47.6063 13.353 47.427 13.5683C47.0649 14.0033 46.8904 14.5643 46.9419 15.1279C46.9934 15.6915 47.2667 16.2116 47.7016 16.5737L58.5339 25.6006L47.7016 34.6274C47.4802 34.8047 47.2963 35.0244 47.1608 35.2736C47.0252 35.5228 46.9408 35.7965 46.9123 36.0788C46.8838 36.361 46.9119 36.6461 46.995 36.9173C47.078 37.1886 47.2143 37.4406 47.3959 37.6585C47.5775 37.8765 47.8007 38.056 48.0525 38.1866C48.3043 38.3172 48.5797 38.3963 48.8624 38.4193C49.1451 38.4422 49.4296 38.4085 49.6992 38.3202C49.9688 38.2319 50.218 38.0906 50.4324 37.9048L63.2326 27.2379C63.4728 27.0377 63.666 26.7872 63.7987 26.504C63.9313 26.2208 64 25.9119 64 25.5992C64 25.2866 63.9313 24.9777 63.7987 24.6945C63.666 24.4113 63.4728 24.1608 63.2326 23.9605ZM41.2615 0.128073C40.9982 0.0324614 40.7186 -0.0103419 40.4387 0.00210723C40.1588 0.0145564 39.8841 0.0820145 39.6303 0.200629C39.3764 0.319244 39.1485 0.486691 38.9594 0.693412C38.7703 0.900133 38.6237 1.14208 38.5281 1.40543L21.4611 48.3397C21.3651 48.6032 21.322 48.8831 21.3342 49.1632C21.3465 49.4434 21.4138 49.7185 21.5325 49.9726C21.6511 50.2267 21.8187 50.4549 22.0256 50.6442C22.2326 50.8335 22.4748 50.9802 22.7385 51.0758C22.9722 51.1588 23.2184 51.2012 23.4665 51.2011C23.9046 51.2011 24.3321 51.0662 24.6909 50.8148C25.0497 50.5634 25.3224 50.2075 25.4719 49.7957L42.5389 2.86146C42.6345 2.59811 42.6773 2.31851 42.6648 2.03862C42.6524 1.75873 42.5849 1.48403 42.4663 1.23021C42.3477 0.976388 42.1803 0.748416 41.9735 0.559311C41.7668 0.370206 41.5249 0.223671 41.2615 0.128073Z" fill="#9779FB"/>
</svg>
