<svg width="40" height="39" viewBox="0 0 40 39" fill="none" xmlns="http://www.w3.org/2000/svg">
<path d="M33.9936 5.74799C30.27 2.06072 25.24 -0.00536158 19.9997 1.04497e-05H19.7939C14.5254 0.0542181 9.4911 2.18522 5.78483 5.93003C2.07855 9.67483 -0.000278836 14.7309 2.80524e-08 19.9997C2.80524e-08 28.2687 5.11145 35.2032 13.3382 38.109C14.2661 38.4361 15.2589 38.536 16.2334 38.4002C17.2078 38.2645 18.1355 37.8971 18.9387 37.3288C19.7419 36.7605 20.397 36.008 20.8493 35.1342C21.3016 34.2605 21.5378 33.291 21.5381 32.3071C21.5381 31.4911 21.8623 30.7085 22.4393 30.1315C23.0163 29.5544 23.7989 29.2303 24.615 29.2303H33.5013C34.8972 29.237 36.2535 28.7662 37.3448 27.8958C38.4362 27.0255 39.1971 25.8081 39.5012 24.4457C39.8451 22.9317 40.0122 21.3829 39.9993 19.8304C39.9797 17.2025 39.4388 14.6046 38.4079 12.1873C37.377 9.76995 35.8766 7.58124 33.9936 5.74799ZM36.4936 23.7688C36.3408 24.4476 35.961 25.0538 35.4169 25.4874C34.8728 25.921 34.197 26.1559 33.5013 26.1534H24.615C22.9829 26.1534 21.4177 26.8017 20.2636 27.9558C19.1096 29.1098 18.4612 30.6751 18.4612 32.3071C18.4605 32.7986 18.3421 33.2827 18.1158 33.719C17.8896 34.1553 17.5622 34.5311 17.1609 34.8148C16.7596 35.0986 16.2962 35.2821 15.8095 35.35C15.3227 35.4179 14.8268 35.3683 14.3632 35.2052C7.40179 32.7494 3.07687 26.9226 3.07687 19.9997C3.07663 15.5416 4.83552 11.2635 7.97141 8.0949C11.1073 4.92624 15.3668 3.12298 19.8247 3.07688H19.9977C24.4557 3.09419 28.7283 4.86296 31.894 8.00173C35.0598 11.1405 36.865 15.3978 36.9205 19.8554C36.932 21.1717 36.7913 22.4849 36.5013 23.7688H36.4936ZM22.3073 9.99984C22.3073 10.4562 22.172 10.9024 21.9184 11.2819C21.6648 11.6614 21.3044 11.9572 20.8827 12.1318C20.4611 12.3065 19.9971 12.3522 19.5494 12.2631C19.1018 12.1741 18.6906 11.9543 18.3679 11.6316C18.0452 11.3089 17.8254 10.8977 17.7363 10.45C17.6473 10.0024 17.693 9.5384 17.8677 9.11674C18.0423 8.69507 18.3381 8.33466 18.7176 8.08109C19.0971 7.82752 19.5432 7.69218 19.9997 7.69218C20.6117 7.69218 21.1986 7.93531 21.6314 8.36808C22.0642 8.80085 22.3073 9.38781 22.3073 9.99984ZM13.8459 14.6151C13.8459 15.0715 13.7106 15.5177 13.457 15.8972C13.2034 16.2767 12.843 16.5725 12.4214 16.7471C11.9997 16.9218 11.5357 16.9675 11.0881 16.8785C10.6404 16.7894 10.2292 16.5696 9.9065 16.2469C9.58377 15.9242 9.36399 15.513 9.27495 15.0653C9.18591 14.6177 9.23161 14.1537 9.40627 13.732C9.58093 13.3104 9.87671 12.95 10.2562 12.6964C10.6357 12.4428 11.0818 12.3075 11.5383 12.3075C12.1503 12.3075 12.7372 12.5506 13.17 12.9834C13.6028 13.4162 13.8459 14.0031 13.8459 14.6151ZM13.8459 25.3842C13.8459 25.8406 13.7106 26.2868 13.457 26.6662C13.2034 27.0457 12.843 27.3415 12.4214 27.5162C11.9997 27.6908 11.5357 27.7365 11.0881 27.6475C10.6404 27.5585 10.2292 27.3387 9.9065 27.0159C9.58377 26.6932 9.36399 26.282 9.27495 25.8344C9.18591 25.3867 9.23161 24.9228 9.40627 24.5011C9.58093 24.0794 9.87671 23.719 10.2562 23.4654C10.6357 23.2119 11.0818 23.0765 11.5383 23.0765C12.1503 23.0765 12.7372 23.3197 13.17 23.7524C13.6028 24.1852 13.8459 24.7722 13.8459 25.3842ZM30.7687 14.6151C30.7687 15.0715 30.6334 15.5177 30.3798 15.8972C30.1262 16.2767 29.7658 16.5725 29.3441 16.7471C28.9225 16.9218 28.4585 16.9675 28.0108 16.8785C27.5632 16.7894 27.152 16.5696 26.8293 16.2469C26.5066 15.9242 26.2868 15.513 26.1977 15.0653C26.1087 14.6177 26.1544 14.1537 26.3291 13.732C26.5037 13.3104 26.7995 12.95 27.179 12.6964C27.5585 12.4428 28.0046 12.3075 28.461 12.3075C29.0731 12.3075 29.66 12.5506 30.0928 12.9834C30.5256 13.4162 30.7687 14.0031 30.7687 14.6151Z" fill="#4D4D56"/>
</svg>
