<svg width="32" height="32" viewBox="0 0 32 32" fill="none" xmlns="http://www.w3.org/2000/svg">
<path d="M31.3971 14.5747L17.4283 0.603451C16.6244 -0.20115 15.3197 -0.20115 14.5145 0.603451L11.6144 3.50498L15.2938 7.18526C16.1492 6.89653 17.1295 7.0902 17.811 7.77185C18.1358 8.097 18.3625 8.507 18.4653 8.95497C18.5681 9.40295 18.5427 9.87081 18.3921 10.3051L21.9383 13.8525C22.7961 13.5567 23.7863 13.7478 24.4711 14.4343C25.4291 15.3917 25.4291 16.9439 24.4711 17.9019C24.2435 18.1297 23.9732 18.3104 23.6756 18.4337C23.3781 18.557 23.0593 18.6205 22.7372 18.6205C22.4152 18.6205 22.0963 18.557 21.7988 18.4337C21.5013 18.3104 21.231 18.1297 21.0033 17.9019C20.6613 17.5595 20.4281 17.1236 20.3332 16.6491C20.2383 16.1745 20.2858 15.6824 20.4698 15.2348L17.163 11.9269L17.1624 20.6323C17.4024 20.7505 17.6214 20.907 17.811 21.0957C18.7687 22.0531 18.7687 23.6048 17.811 24.5643C16.8533 25.5217 15.3009 25.5217 14.3442 24.5643C13.3867 23.6051 13.3081 22.0534 14.2654 21.0957C14.5021 20.8592 14.7355 20.6805 14.989 20.5608V11.7748C14.7355 11.6552 14.5024 11.4777 14.2651 11.2397C13.54 10.5147 13.4045 9.45001 13.7765 8.55871L10.1693 4.9304L0.600973 14.5101C-0.203696 15.3154 -0.198627 16.6204 0.606042 17.4253L14.5771 31.3966C15.3813 32.2012 16.687 32.2012 17.4924 31.3966L31.3961 17.4902C32.2008 16.6851 32.2015 15.3793 31.3971 14.5747Z" fill="#9779FB"/>
</svg>
