<svg width="32" height="32" viewBox="0 0 32 32" fill="none" xmlns="http://www.w3.org/2000/svg">
<path fill-rule="evenodd" clip-rule="evenodd" d="M15.9999 0C7.16454 0 0 7.34436 0 16.4051C0 23.6535 4.58445 29.8026 10.9417 31.9721C11.741 32.1242 12.0346 31.6162 12.0346 31.1829C12.0346 30.7917 12.0198 29.4994 12.0129 28.1286C7.56171 29.121 6.62245 26.193 6.62245 26.193C5.89463 24.2968 4.84596 23.7926 4.84596 23.7926C3.39402 22.7744 4.95538 22.7956 4.95538 22.7956C6.56178 22.9111 7.40803 24.4862 7.40803 24.4862C8.83506 26.9936 11.151 26.2688 12.064 25.8499C12.2076 24.7896 12.6223 24.0656 13.0798 23.656C9.52605 23.2417 5.78998 21.8348 5.78998 15.5488C5.78998 13.7577 6.41526 12.2943 7.43877 11.1452C7.27238 10.7322 6.72472 9.0637 7.5935 6.80403C7.5935 6.80403 8.9368 6.36312 11.9943 8.48561C13.2709 8.12185 14.6399 7.93903 15.9999 7.93278C17.3591 7.93903 18.7289 8.12131 20.0078 8.48507C23.0616 6.36258 24.4033 6.80348 24.4033 6.80348C25.2742 9.06289 24.7266 10.7317 24.5604 11.1446C25.5863 12.2938 26.2071 13.7572 26.2071 15.5483C26.2071 21.8492 22.4641 23.2363 18.9013 23.6427C19.4755 24.1518 19.9869 25.1504 19.9869 26.6807C19.9869 28.8757 19.9683 30.6423 19.9683 31.1826C19.9683 31.6192 20.2566 32.1307 21.0673 31.9696C27.4209 29.798 32 23.6508 32 16.4051C31.9997 7.3449 24.836 0 15.9999 0Z" fill="#121314"/>
<path d="M6.05964 23.5541C6.0244 23.6356 5.89935 23.66 5.78542 23.6043C5.66884 23.5511 5.60393 23.44 5.64155 23.3582C5.67599 23.274 5.80132 23.2509 5.9171 23.3071C6.03368 23.3606 6.09992 23.4728 6.05938 23.5543L6.05964 23.5541ZM6.70771 24.2954C6.63167 24.368 6.48251 24.3343 6.38129 24.2194C6.27637 24.1053 6.25677 23.9523 6.3344 23.8787C6.41335 23.8064 6.55802 23.8407 6.66294 23.9548C6.76733 24.0705 6.78799 24.2221 6.70798 24.2957L6.70771 24.2954ZM7.33883 25.24C7.2408 25.3101 7.08024 25.2446 6.98114 25.0987C6.88311 24.9526 6.88311 24.7774 6.98379 24.7075C7.08262 24.6375 7.2408 24.7008 7.34148 24.8453C7.43898 24.9933 7.43898 25.1688 7.33883 25.24ZM8.20283 26.1531C8.1154 26.2522 7.92834 26.2256 7.79163 26.0906C7.652 25.9583 7.61305 25.77 7.70075 25.6711C7.78977 25.5717 7.97762 25.5994 8.11513 25.7336C8.25476 25.8656 8.29689 26.0542 8.20336 26.1528L8.20283 26.1531ZM9.39511 26.6831C9.35617 26.8116 9.17653 26.87 8.99504 26.8151C8.81408 26.7589 8.69564 26.6086 8.73274 26.4788C8.76983 26.3492 8.95079 26.2886 9.13334 26.347C9.3143 26.403 9.43274 26.5524 9.39511 26.6831ZM10.7048 26.7811C10.7093 26.9164 10.5556 27.0283 10.3656 27.0311C10.1741 27.0357 10.0191 26.9259 10.0172 26.7928C10.0172 26.6562 10.1677 26.5456 10.359 26.5418C10.549 26.5383 10.705 26.6469 10.705 26.7809L10.7048 26.7811ZM11.923 26.5687C11.9458 26.7004 11.8136 26.836 11.6247 26.8721C11.4392 26.9075 11.267 26.8254 11.2431 26.6947C11.2204 26.5595 11.355 26.4239 11.5404 26.3889C11.7296 26.3554 11.8992 26.4348 11.923 26.5687Z" fill="#121314"/>
</svg>
