<svg width="149" height="24" viewBox="0 0 149 24" fill="none" xmlns="http://www.w3.org/2000/svg">
<path d="M14.52 23H8.76V14.2C8.76 13.7947 8.65333 13.4747 8.44 13.24C8.22667 12.984 7.93867 12.856 7.576 12.856C7.23467 12.856 6.95733 12.9947 6.744 13.272C6.53067 13.528 6.424 13.8373 6.424 14.2V23H0.664V14.296C0.664 13.272 0.845333 12.3227 1.208 11.448C1.57067 10.552 2.06133 9.784 2.68 9.144C3.29867 8.504 4.01333 8.00267 4.824 7.64C5.63467 7.27733 6.49867 7.096 7.416 7.096C8.376 7.096 9.28267 7.27733 10.136 7.64C11.0107 7.98133 11.768 8.48267 12.408 9.144C13.0693 9.80533 13.5813 10.616 13.944 11.576C14.328 12.5147 14.52 13.5813 14.52 14.776V23ZM27.6123 15.8C27.6123 14.9467 27.3883 14.3173 26.9403 13.912C26.4923 13.5067 25.9909 13.304 25.4363 13.304C24.7749 13.304 24.2309 13.528 23.8043 13.976C23.3989 14.4027 23.1963 14.8933 23.1963 15.448C23.1963 16.0667 23.4096 16.6 23.8363 17.048C24.2629 17.4747 24.7536 17.688 25.3083 17.688C25.6923 17.688 25.9909 17.6453 26.2043 17.56C26.4176 17.4533 26.6416 17.3147 26.8763 17.144V23.192C26.5776 23.2347 26.3003 23.2667 26.0443 23.288C25.8096 23.3093 25.5749 23.32 25.3403 23.32C24.3376 23.32 23.3563 23.128 22.3963 22.744C21.4576 22.3387 20.6043 21.7733 19.8363 21.048C19.0896 20.3013 18.4816 19.416 18.0123 18.392C17.5643 17.368 17.3403 16.2267 17.3403 14.968C17.3403 13.944 17.5429 12.9627 17.9483 12.024C18.3749 11.064 18.9403 10.2213 19.6443 9.496C20.3696 8.77067 21.2229 8.19467 22.2043 7.768C23.2069 7.32 24.2843 7.096 25.4363 7.096C26.5883 7.096 27.6549 7.32 28.6363 7.768C29.6389 8.19467 30.5029 8.78133 31.2283 9.528C31.9749 10.2533 32.5509 11.1067 32.9563 12.088C33.3829 13.0693 33.5963 14.0933 33.5963 15.16V23H27.6123V15.8ZM46.8348 1.656H52.5948V14.648C52.5948 16.0347 52.3708 17.2613 51.9228 18.328C51.4961 19.3947 50.9094 20.3013 50.1628 21.048C49.4161 21.7947 48.5521 22.36 47.5708 22.744C46.6108 23.128 45.5974 23.32 44.5308 23.32C43.4428 23.32 42.4081 23.128 41.4268 22.744C40.4454 22.36 39.5814 21.8053 38.8348 21.08C38.0881 20.3547 37.4908 19.48 37.0428 18.456C36.6161 17.4107 36.4028 16.248 36.4028 14.968C36.4028 13.9653 36.6161 12.9947 37.0428 12.056C37.4694 11.1173 38.0454 10.2853 38.7708 9.56C39.4961 8.81333 40.3388 8.216 41.2988 7.768C42.2801 7.32 43.3148 7.096 44.4028 7.096C44.6588 7.096 44.9254 7.11733 45.2028 7.16C45.4801 7.18133 45.7361 7.20267 45.9708 7.224V13.688C45.8001 13.5813 45.6188 13.4853 45.4268 13.4C45.2348 13.2933 45.0001 13.24 44.7228 13.24C44.3388 13.24 44.0081 13.3147 43.7308 13.464C43.4748 13.592 43.2508 13.752 43.0588 13.944C42.8881 14.136 42.7601 14.3493 42.6748 14.584C42.5894 14.8187 42.5468 15.032 42.5468 15.224C42.5468 16.0347 42.7601 16.632 43.1868 17.016C43.6348 17.3787 44.1361 17.56 44.6908 17.56C45.0748 17.56 45.4374 17.464 45.7788 17.272C46.1201 17.08 46.3761 16.824 46.5468 16.504C46.7174 16.184 46.8028 15.864 46.8028 15.544C46.8241 15.224 46.8348 14.9253 46.8348 14.648V1.656ZM83.28 19.832C83.28 19.2987 83.376 18.808 83.568 18.36C83.7813 17.8907 84.0587 17.496 84.4 17.176C84.7413 16.8347 85.1253 16.5787 85.552 16.408C85.9787 16.216 86.416 16.12 86.864 16.12C87.4187 16.12 87.9307 16.2267 88.4 16.44C88.8693 16.632 89.2747 16.8987 89.616 17.24C89.9573 17.5813 90.224 17.9867 90.416 18.456C90.608 18.904 90.704 19.3733 90.704 19.864C90.704 20.3547 90.608 20.824 90.416 21.272C90.224 21.72 89.9573 22.1147 89.616 22.456C89.2747 22.7973 88.88 23.064 88.432 23.256C87.984 23.448 87.4933 23.544 86.96 23.544C86.4053 23.544 85.904 23.4373 85.456 23.224C85.008 23.0107 84.624 22.7333 84.304 22.392C83.984 22.0507 83.728 21.656 83.536 21.208C83.3653 20.76 83.28 20.3013 83.28 19.832ZM93.8888 1.656H102.721C103.638 1.656 104.449 1.80533 105.153 2.104C105.878 2.40266 106.486 2.79733 106.977 3.288C107.489 3.77866 107.873 4.33333 108.129 4.952C108.385 5.57067 108.513 6.18933 108.513 6.808C108.513 7.81067 108.321 8.696 107.937 9.464C107.553 10.2107 106.966 10.9147 106.177 11.576C108.459 12.8987 109.601 14.6587 109.601 16.856C109.601 19.0107 108.779 20.6747 107.137 21.848C106.71 22.1467 106.305 22.3813 105.921 22.552C105.558 22.7013 105.195 22.808 104.833 22.872C104.491 22.936 104.161 22.9787 103.841 23C103.521 23 103.201 23 102.881 23H101.249V17.528H102.753C103.137 17.528 103.425 17.432 103.617 17.24C103.83 17.0267 103.937 16.7493 103.937 16.408C103.937 16.1093 103.83 15.864 103.617 15.672C103.425 15.48 103.179 15.384 102.881 15.384H101.249V9.688C101.782 9.66667 102.209 9.58133 102.529 9.432C102.849 9.28267 103.009 8.97333 103.009 8.504C103.009 8.184 102.891 7.91733 102.657 7.704C102.443 7.49067 102.102 7.384 101.633 7.384H100.193V23H93.8888V1.656ZM112.795 1.72H119.163C119.888 1.72 120.699 1.76267 121.595 1.848C122.491 1.93333 123.472 2.21067 124.539 2.68C125.52 3.128 126.406 3.704 127.195 4.408C127.984 5.09067 128.646 5.848 129.179 6.68C129.712 7.512 130.118 8.38667 130.395 9.304C130.694 10.2 130.843 11.0747 130.843 11.928C130.843 13.5493 130.566 15.032 130.011 16.376C129.478 17.72 128.742 18.8827 127.803 19.864C126.864 20.824 125.766 21.5813 124.507 22.136C123.27 22.6693 121.947 22.9467 120.539 22.968V17.336C121.03 17.1653 121.51 16.984 121.979 16.792C122.47 16.5787 122.96 16.1733 123.451 15.576C123.963 14.9573 124.283 14.392 124.411 13.88C124.539 13.3467 124.603 12.7493 124.603 12.088C124.603 11.512 124.464 10.9467 124.187 10.392C123.91 9.816 123.536 9.31467 123.067 8.888C122.619 8.44 122.096 8.09867 121.499 7.864C120.902 7.608 120.283 7.49067 119.643 7.512V22.968H112.795V1.72ZM143.971 7.736V23H137.603V7.736H132.739V1.624H148.771V7.736H143.971Z" fill="white"/>
<path d="M58.7635 0.504C59.1688 0.504 59.5528 0.578666 59.9155 0.727999C60.2782 0.877333 60.5875 1.08 60.8435 1.336C61.1208 1.592 61.3342 1.89067 61.4835 2.232C61.6328 2.57333 61.7075 2.92533 61.7075 3.288C61.7075 4.03467 61.4408 4.68533 60.9075 5.24C60.3955 5.77333 59.6808 6.04 58.7635 6.04C57.8462 6.04 57.1315 5.77333 56.6195 5.24C56.1075 4.68533 55.8515 4.03467 55.8515 3.288C55.8515 2.92533 55.9262 2.584 56.0755 2.264C56.2248 1.92267 56.4275 1.624 56.6835 1.368C56.9395 1.112 57.2382 0.909332 57.5795 0.759998C57.9422 0.589333 58.3368 0.504 58.7635 0.504ZM61.6755 7.416V23H55.8195V7.416H61.6755ZM74.6718 13.752C74.1384 13.0053 73.4771 12.632 72.6878 12.632C72.0691 12.632 71.5251 12.856 71.0558 13.304C70.6078 13.7307 70.3838 14.2853 70.3838 14.968C70.3838 15.5653 70.6078 16.0987 71.0558 16.568C71.5251 17.016 72.0584 17.24 72.6558 17.24C73.7224 17.24 74.4798 16.664 74.9278 15.512H80.7518C80.6664 16.6427 80.3998 17.688 79.9518 18.648C79.5038 19.608 78.9171 20.44 78.1918 21.144C77.4664 21.8267 76.6131 22.36 75.6318 22.744C74.6718 23.128 73.6264 23.32 72.4958 23.32C71.4931 23.32 70.5118 23.1173 69.5518 22.712C68.5918 22.3067 67.7384 21.7413 66.9918 21.016C66.2451 20.2907 65.6478 19.4267 65.1998 18.424C64.7518 17.4 64.5278 16.28 64.5278 15.064C64.5278 13.9973 64.7411 12.984 65.1678 12.024C65.5944 11.0427 66.1598 10.1893 66.8638 9.464C67.5891 8.73867 68.4318 8.16267 69.3918 7.736C70.3731 7.30933 71.4078 7.096 72.4958 7.096C73.5838 7.096 74.5864 7.27733 75.5038 7.64C76.4211 8.00267 77.2318 8.48267 77.9358 9.08C78.6398 9.67733 79.2158 10.3707 79.6638 11.16C80.1118 11.928 80.4211 12.728 80.5918 13.56L74.6718 13.752Z" fill="#9779FB"/>
</svg>
