<svg width="32" height="32" viewBox="0 0 32 32" fill="none" xmlns="http://www.w3.org/2000/svg">
<path d="M12.1213 15.4769H19.8306C21.9767 15.4769 23.6672 13.6809 23.6672 11.5494V4.28026C23.6672 2.21127 21.9137 0.656907 19.819 0.311726C18.4933 0.0933734 17.1235 -0.00599673 15.8037 0.000279276C14.4844 0.00629379 13.2624 0.117431 12.1538 0.311726C8.88732 0.882059 8.33263 2.07712 8.33263 4.28026V7.10891H15.9999V8.15491H5.36513C3.12206 8.15491 1.15766 9.49065 0.543482 12.028C-0.165344 14.9359 -0.196806 16.7138 0.543482 19.7501C1.09209 22.01 2.40213 23.5834 4.64547 23.5834H7.27508V20.1714C7.27508 17.6513 9.50334 15.4769 12.1213 15.4769ZM11.6354 5.24964C10.8353 5.24964 10.1871 4.60138 10.1871 3.79962C10.1871 2.99446 10.8351 2.34018 11.6354 2.34018C12.4325 2.34018 13.084 2.99446 13.084 3.79962C13.0837 4.60138 12.4322 5.24964 11.6354 5.24964ZM31.4087 12.028C30.854 9.81884 29.7952 8.15491 27.5489 8.15491H24.7247V11.5494C24.7247 14.1775 22.3997 16.2614 19.8306 16.2614H12.1213C10.0094 16.2614 8.33263 18.1772 8.33263 20.2692V27.5389C8.33263 29.6074 10.1159 30.8244 12.1562 31.418C14.5997 32.1285 16.9136 32.2569 19.837 31.418C21.78 30.8612 23.6672 29.7415 23.6672 27.5389V24.6294H15.9999V23.5834H27.5489C29.792 23.5834 30.6282 22.073 31.4087 19.7498C32.2143 17.3584 32.1797 15.0954 31.4087 12.028ZM20.3163 26.569C21.1166 26.569 21.7649 27.2172 21.7649 28.0195C21.7649 28.8239 21.1169 29.4784 20.3163 29.4784C19.5192 29.4784 18.868 28.8242 18.868 28.0195C18.868 27.2172 19.5192 26.569 20.3163 26.569Z" fill="#121314"/>
</svg>
