<svg width="64" height="58" viewBox="0 0 64 58" fill="none" xmlns="http://www.w3.org/2000/svg">
<path d="M32.0003 34.4026C35.2188 34.4026 37.8278 31.7935 37.8278 28.5751C37.8278 25.3567 35.2188 22.7476 32.0003 22.7476C28.7819 22.7476 26.1729 25.3567 26.1729 28.5751C26.1729 31.7935 28.7819 34.4026 32.0003 34.4026Z" fill="#9779FB"/>
<path d="M54.1342 18.9649C53.0096 18.5559 51.8339 18.147 50.607 17.7891C50.9137 16.5623 51.1693 15.3355 51.3738 14.1597C52.4473 7.41214 51.2716 2.65815 48 0.817891C47.0288 0.255591 45.9553 0 44.7284 0C41.1502 0 36.6006 2.65815 32 7.10543C27.3994 2.65815 22.8498 0 19.2716 0C18.0447 0 16.9712 0.255591 16 0.817891C12.7284 2.70926 11.5527 7.46326 12.6262 14.1597C12.8307 15.3355 13.0863 16.5623 13.393 17.7891C12.1661 18.147 10.9904 18.5048 9.86582 18.9649C3.47604 21.4185 0 24.7923 0 28.5751C0 32.3578 3.52716 35.7316 9.86582 38.1853C10.9904 38.5943 12.1661 39.0032 13.393 39.361C13.0863 40.5879 12.8307 41.8147 12.6262 42.9904C11.5527 49.738 12.7284 54.492 16 56.3323C16.9712 56.8946 18.0447 57.1502 19.2716 57.1502C22.901 57.1502 27.4505 54.492 32 50.0447C36.6006 54.492 41.1502 57.1502 44.7284 57.1502C45.9553 57.1502 47.0288 56.8946 48 56.3323C51.2716 54.4409 52.4473 49.6869 51.3738 42.9904C51.1693 41.8147 50.9137 40.5879 50.607 39.361C51.8339 39.0032 53.0096 38.6454 54.1342 38.1853C60.524 35.7316 64 32.3578 64 28.5751C64 24.7923 60.524 21.4185 54.1342 18.9649ZM46.5687 3.3738C48.6645 4.60064 49.3802 8.38339 48.5112 13.7508C48.3578 14.8243 48.1022 15.9489 47.7955 17.1246C45.1374 16.5112 42.3259 16.1022 39.361 15.8466C37.623 13.393 35.8339 11.1949 34.0447 9.20128C37.8275 5.46965 41.6613 2.91374 44.7796 2.91374C45.4441 2.91374 46.0575 3.06709 46.5687 3.3738ZM40.8435 33.6869C39.9233 35.3227 38.8498 36.9585 37.7252 38.5942C35.8339 38.7476 33.9425 38.7987 32 38.7987C30.0064 38.7987 28.115 38.7476 26.2748 38.5942C25.1502 36.9585 24.1278 35.3227 23.2077 33.6869C22.2364 32 21.3163 30.262 20.4984 28.5751C21.3163 26.8882 22.2364 25.1502 23.2077 23.4633C24.1278 21.8275 25.2013 20.1917 26.3259 18.5559C28.2173 18.4026 30.1086 18.3514 32.0511 18.3514C34.0447 18.3514 35.9361 18.4026 37.7764 18.5559C38.901 20.1917 39.9233 21.8275 40.8435 23.4633C41.8147 25.1502 42.7348 26.8882 43.5527 28.5751C42.6837 30.262 41.8147 31.9489 40.8435 33.6869ZM45.0863 32C45.853 33.7891 46.4665 35.5272 47.0288 37.2652C45.2907 37.6741 43.4505 37.9808 41.508 38.2364C42.1214 37.2652 42.7859 36.2428 43.3482 35.1693C43.9617 34.0958 44.524 33.0224 45.0863 32ZM32 45.853C30.7732 44.524 29.5974 43.0927 28.4728 41.6102C29.6486 41.6613 30.8243 41.7125 32 41.7125C33.1757 41.7125 34.3514 41.6613 35.5272 41.6102C34.4026 43.0927 33.2268 44.524 32 45.853ZM22.492 38.1853C20.5495 37.9297 18.7093 37.623 16.9712 37.2141C17.5335 35.5272 18.147 33.738 18.9137 31.9489C19.476 32.9712 20.0383 34.0447 20.6518 35.0671C21.2652 36.1917 21.8786 37.1629 22.492 38.1853ZM18.9137 25.1502C18.147 23.361 17.5335 21.623 16.9712 19.885C18.7093 19.476 20.5495 19.1693 22.492 18.9137C21.8786 19.885 21.2141 20.9073 20.6518 21.9808C20.0383 23.0543 19.476 24.1278 18.9137 25.1502ZM32 11.2971C33.2268 12.6262 34.4026 14.0575 35.5272 15.5399C34.3514 15.4888 33.1757 15.4377 32 15.4377C30.8243 15.4377 29.6486 15.4888 28.4728 15.5399C29.5974 14.0575 30.7732 12.6262 32 11.2971ZM43.3482 22.0319L41.508 18.9649C43.4505 19.2204 45.2907 19.5272 47.0288 19.9361C46.4665 21.623 45.853 23.4121 45.0863 25.2013C44.524 24.1278 43.9617 23.0543 43.3482 22.0319ZM15.4888 13.7508C14.6198 8.38339 15.3355 4.60064 17.4313 3.3738C17.9425 3.06709 18.5559 2.91374 19.2204 2.91374C22.2875 2.91374 26.1214 5.41853 29.9553 9.20128C28.1661 11.1438 26.377 13.393 24.639 15.8466C21.6741 16.1022 18.8626 16.5623 16.2045 17.1246C15.8978 15.9489 15.6933 14.8243 15.4888 13.7508ZM2.86262 28.5751C2.86262 26.1725 5.77636 23.6166 10.8882 21.7252C11.9105 21.3163 13.0351 20.9585 14.1597 20.6518C14.9776 23.2077 16 25.9169 17.2268 28.6262C16 31.3355 14.9265 33.9936 14.1597 36.5495C7.10543 34.5048 2.86262 31.4377 2.86262 28.5751ZM17.4313 53.7764C15.3355 52.5495 14.6198 48.7668 15.4888 43.3994C15.6422 42.3259 15.8978 41.2013 16.2045 40.0256C18.8626 40.639 21.6741 41.0479 24.639 41.3035C26.377 43.7572 28.1661 45.9553 29.9553 47.9489C26.1725 51.6805 22.3387 54.2364 19.2204 54.2364C18.5559 54.2364 17.9425 54.0831 17.4313 53.7764ZM48.5112 43.3994C49.3802 48.7668 48.6645 52.5495 46.5687 53.7764C46.0575 54.0831 45.4441 54.2364 44.7796 54.2364C41.7125 54.2364 37.8786 51.7316 34.0447 47.9489C35.8339 46.0064 37.623 43.7572 39.361 41.3035C42.3259 41.0479 45.1374 40.5879 47.7955 40.0256C48.1022 41.2013 48.3067 42.3259 48.5112 43.3994ZM53.1118 35.4249C52.0895 35.8339 50.9649 36.1917 49.8403 36.4984C49.0224 33.9425 48 31.2332 46.7732 28.524C48 25.8147 49.0735 23.1566 49.8403 20.6006C56.8946 22.6454 61.1374 25.7125 61.1374 28.5751C61.1374 30.9776 58.1725 33.5336 53.1118 35.4249Z" fill="#9779FB"/>
</svg>
