<svg width="17" height="15" viewBox="0 0 17 15" fill="none" xmlns="http://www.w3.org/2000/svg">
<path d="M8.06367 4.00119C7.38028 4.00119 6.71223 4.20225 6.144 4.57896C5.57578 4.95567 5.1329 5.4911 4.87138 6.11755C4.60985 6.74399 4.54142 7.43331 4.67475 8.09834C4.80807 8.76337 5.13716 9.37424 5.62039 9.8537C6.10363 10.3332 6.71931 10.6597 7.38957 10.792C8.05984 10.9242 8.75459 10.8564 9.38597 10.5969C10.0173 10.3374 10.557 9.89797 10.9367 9.33419C11.3163 8.7704 11.519 8.10757 11.519 7.42951C11.518 6.52055 11.1537 5.6491 10.5059 5.00636C9.85811 4.36363 8.97979 4.00213 8.06367 4.00119ZM8.06367 9.71506C7.60808 9.71506 7.16271 9.58102 6.78389 9.32988C6.40508 9.07874 6.10982 8.72178 5.93547 8.30415C5.76112 7.88652 5.71551 7.42698 5.80439 6.98362C5.89327 6.54027 6.11266 6.13302 6.43482 5.81338C6.75698 5.49374 7.16743 5.27607 7.61427 5.18788C8.06112 5.09969 8.52428 5.14495 8.9452 5.31794C9.36612 5.49093 9.72589 5.78387 9.979 6.15973C10.2321 6.53559 10.3672 6.97747 10.3672 7.42951C10.3672 8.03568 10.1245 8.61701 9.69253 9.04564C9.26053 9.47426 8.67461 9.71506 8.06367 9.71506ZM15.9778 5.94462C15.9618 5.86416 15.9284 5.78806 15.8801 5.72151C15.8318 5.65496 15.7696 5.59951 15.6978 5.55893L13.5504 4.34473L13.5418 1.94348C13.5415 1.86078 13.5232 1.77912 13.488 1.70415C13.4528 1.62917 13.4017 1.56267 13.3381 1.50922C12.5591 0.855483 11.6621 0.354496 10.6948 0.0329007C10.6186 0.00731666 10.5378 -0.00215129 10.4577 0.00510659C10.3777 0.0123645 10.3 0.0361873 10.2297 0.0750405L8.06367 1.27638L5.89546 0.0728977C5.82517 0.0338257 5.7474 0.00982303 5.66717 0.00244126C5.58694 -0.00494051 5.50605 0.0044629 5.42971 0.0300437C4.46305 0.35399 3.56707 0.856887 2.78927 1.51208C2.72576 1.56545 2.67466 1.63184 2.63949 1.70668C2.60432 1.78152 2.58592 1.86304 2.58555 1.94562L2.57476 4.34902L0.427418 5.56322C0.355577 5.6038 0.293384 5.65925 0.245065 5.7258C0.196745 5.79235 0.163434 5.86844 0.147393 5.9489C-0.049131 6.92875 -0.049131 7.93742 0.147393 8.91726C0.163434 8.99772 0.196745 9.07382 0.245065 9.14037C0.293384 9.20692 0.355577 9.26237 0.427418 9.30295L2.57476 10.5171L2.58339 12.9184C2.58365 13.0011 2.602 13.0828 2.63718 13.1577C2.67235 13.2327 2.72351 13.2992 2.78711 13.3527C3.56605 14.0064 4.46306 14.5074 5.43043 14.829C5.50661 14.8546 5.58735 14.864 5.66744 14.8568C5.74754 14.8495 5.82521 14.8257 5.89546 14.7868L8.06367 13.5826L10.2319 14.7861C10.3177 14.8336 10.4144 14.8582 10.5126 14.8575C10.5755 14.8575 10.638 14.8474 10.6976 14.8276C11.6642 14.504 12.5602 14.0016 13.3381 13.3469C13.4016 13.2936 13.4527 13.2272 13.4879 13.1523C13.523 13.0775 13.5414 12.996 13.5418 12.9134L13.5526 10.51L15.6999 9.29581C15.7718 9.25523 15.834 9.19978 15.8823 9.13323C15.9306 9.06667 15.9639 8.99058 15.98 8.91012C16.1754 7.93106 16.1747 6.9234 15.9778 5.94462ZM14.898 8.43801L12.8414 9.59864C12.7513 9.64948 12.6767 9.72351 12.6254 9.81291C12.5837 9.88433 12.5398 9.96004 12.4951 10.0315C12.438 10.1215 12.4076 10.2257 12.4073 10.3322L12.3965 12.6356C11.8437 13.0663 11.2278 13.4107 10.5702 13.6569L8.49559 12.5099C8.40946 12.4626 8.31256 12.438 8.21412 12.4384H8.20045C8.11334 12.4384 8.02552 12.4384 7.93842 12.4384C7.8354 12.4359 7.73354 12.4605 7.64328 12.5099L5.56721 13.6598C4.90818 13.4155 4.29063 13.0727 3.73589 12.6434L3.72797 10.3436C3.72761 10.237 3.69719 10.1326 3.64015 10.0422C3.59551 9.97076 3.5516 9.89933 3.51057 9.82363C3.45969 9.73284 3.38509 9.65734 3.29461 9.60507L1.23582 8.44158C1.12928 7.77292 1.12928 7.09181 1.23582 6.42316L3.28885 5.26038C3.37896 5.20954 3.45357 5.13552 3.50481 5.04611C3.54656 4.97469 3.59048 4.89898 3.63511 4.82756C3.69224 4.73749 3.72267 4.63328 3.72293 4.52686L3.73373 2.22346C4.28653 1.79274 4.90239 1.44831 5.56001 1.2021L7.63176 2.34916C7.72192 2.39875 7.82385 2.42342 7.9269 2.42059C8.014 2.42059 8.10183 2.42059 8.18893 2.42059C8.29195 2.42314 8.3938 2.39849 8.48407 2.34916L10.5601 1.19925C11.2192 1.44357 11.8367 1.7863 12.3915 2.2156L12.3994 4.51544C12.3997 4.62207 12.4302 4.72647 12.4872 4.81684C12.5318 4.88827 12.5757 4.95969 12.6168 5.0354C12.6677 5.12619 12.7423 5.20169 12.8327 5.25395L14.8915 6.41744C14.9995 7.08661 15.0007 7.76847 14.8951 8.43801H14.898Z" fill="white"/>
</svg>
