<svg width="20" height="20" viewBox="0 0 20 20" fill="none" xmlns="http://www.w3.org/2000/svg">
<path d="M15.5878 11.5787L12.5878 10.0787C12.4697 10.0199 12.3381 9.99325 12.2065 10.0015C12.0748 10.0097 11.9476 10.0525 11.8378 10.1256L10.4606 11.0444C9.82836 10.6968 9.30811 10.1766 8.96057 9.54437L9.87932 8.16719C9.95241 8.05734 9.99523 7.93016 10.0035 7.79848C10.0117 7.6668 9.98504 7.53528 9.92619 7.41719L8.42619 4.41719C8.36402 4.29163 8.26792 4.186 8.14878 4.11226C8.02964 4.03853 7.89224 3.99964 7.75213 4C6.75757 4 5.80374 4.39509 5.10048 5.09835C4.39722 5.80161 4.00213 6.75544 4.00213 7.75C4.00461 9.93727 4.8746 12.0343 6.42124 13.5809C7.96787 15.1275 10.0649 15.9975 12.2521 16C12.7446 16 13.2322 15.903 13.6872 15.7145C14.1422 15.5261 14.5556 15.2499 14.9038 14.9017C15.252 14.5534 15.5282 14.14 15.7167 13.6851C15.9051 13.2301 16.0021 12.7425 16.0021 12.25C16.0022 12.1107 15.9635 11.9741 15.8903 11.8555C15.8171 11.7369 15.7124 11.6411 15.5878 11.5787ZM12.2521 14.5C10.4625 14.498 8.74679 13.7862 7.48135 12.5208C6.21591 11.2553 5.50411 9.5396 5.50213 7.75C5.50198 7.2298 5.68209 6.72562 6.01181 6.32326C6.34153 5.9209 6.80048 5.64521 7.31057 5.54313L8.38682 7.69937L7.47088 9.0625C7.40243 9.16517 7.36038 9.28314 7.34844 9.40596C7.3365 9.52877 7.35505 9.65263 7.40244 9.76656C7.93905 11.0419 8.95364 12.0565 10.229 12.5931C10.3433 12.6426 10.4681 12.6629 10.5921 12.6521C10.7162 12.6413 10.8356 12.5998 10.9396 12.5312L12.3093 11.6181L14.4656 12.6944C14.3627 13.205 14.0858 13.6642 13.6821 13.9935C13.2785 14.3228 12.7731 14.5018 12.2521 14.5ZM10.0021 0.25C8.31882 0.249633 6.66408 0.685083 5.19899 1.51396C3.7339 2.34285 2.50836 3.53692 1.64166 4.97997C0.774969 6.42301 0.296642 8.06587 0.253242 9.74862C0.209842 11.4314 0.602846 13.0967 1.394 14.5825L0.329941 17.7747C0.241801 18.039 0.22901 18.3226 0.293001 18.5938C0.356992 18.8649 0.495236 19.1129 0.692239 19.3099C0.889241 19.5069 1.13722 19.6451 1.40837 19.7091C1.67953 19.7731 1.96315 19.7603 2.22744 19.6722L5.41963 18.6081C6.72722 19.3036 8.17608 19.6921 9.65622 19.744C11.1364 19.7959 12.6089 19.51 13.962 18.9079C15.3151 18.3057 16.5133 17.4033 17.4656 16.269C18.4178 15.1346 19.0992 13.7983 19.4579 12.3613C19.8166 10.9244 19.8432 9.42456 19.5357 7.97578C19.2282 6.527 18.5947 5.16731 17.6833 3.99992C16.7719 2.83253 15.6065 1.88811 14.2755 1.23836C12.9446 0.588614 11.4832 0.250608 10.0021 0.25ZM10.0021 18.25C8.55179 18.251 7.12691 17.8691 5.8715 17.1428C5.77959 17.0895 5.67739 17.0563 5.57169 17.0455C5.46599 17.0347 5.35919 17.0464 5.25838 17.08L1.75213 18.25L2.92119 14.7438C2.95489 14.643 2.9668 14.5362 2.95613 14.4305C2.94547 14.3248 2.91247 14.2226 2.85932 14.1306C1.94991 12.5584 1.58479 10.7299 1.82059 8.92896C2.05639 7.12801 2.87993 5.4552 4.16346 4.17006C5.44699 2.88491 7.11875 2.05925 8.9194 1.82118C10.7201 1.5831 12.549 1.94591 14.1224 2.85333C15.6958 3.76074 16.9258 5.16204 17.6215 6.83983C18.3173 8.51762 18.4399 10.3781 17.9703 12.1327C17.5008 13.8873 16.4654 15.4379 15.0246 16.5439C13.5839 17.65 11.8185 18.2497 10.0021 18.25Z" fill="#4D4D56"/>
</svg>
